# MagicaVoxel @ Ephtracy

# group
o Detecteurs

# material
mtllib Compresseur-0-Detecteurs.mtl
usemtl palette

# normals
vn -1 0 0
vn 1 0 0
vn 0 0 1
vn 0 0 -1
vn 0 -1 0
vn 0 1 0

# texcoords
vt 0.427734 0.5
vt 0.716797 0.5
vt 0.982422 0.5
vt 0.986328 0.5

# verts
v -0.5 0.5 2.4
v -0.5 0.5 2
v -0.5 0.5 -2
v -0.5 0.5 -2.4
v -0.5 1.3 2.4
v -0.5 1.3 2
v -0.5 1.3 -2
v -0.5 1.3 -2.4
v -0.4 0.4 2.4
v -0.4 0.4 2
v -0.4 0.4 -2
v -0.4 0.4 -2.4
v -0.4 0.5 2.4
v -0.4 0.5 2
v -0.4 0.5 -2
v -0.4 0.5 -2.4
v -0.4 1.3 2.4
v -0.4 1.3 2
v -0.4 1.3 -2
v -0.4 1.3 -2.4
v -0.4 1.4 2.4
v -0.4 1.4 2
v -0.4 1.4 -2
v -0.4 1.4 -2.4
v -0.3 0.5 -2.3
v -0.3 0.5 -2.4
v -0.3 0.6 2.3
v -0.3 0.6 2.2
v -0.3 0.6 -2.3
v -0.3 0.6 -2.4
v -0.3 0.7 2.3
v -0.3 0.7 2.2
v -0.3 0.7 -2.3
v -0.3 0.7 -2.4
v -0.3 1.1 2.3
v -0.3 1.1 2.2
v -0.3 1.1 -2.3
v -0.3 1.1 -2.4
v -0.3 1.2 2.3
v -0.3 1.2 2.2
v -0.3 1.2 -2.3
v -0.3 1.2 -2.4
v -0.3 1.3 -2.3
v -0.3 1.3 -2.4
v -0.2 0.7 2.3
v -0.2 0.7 2.2
v -0.2 0.8 2.3
v -0.2 0.8 2.2
v -0.2 1 2.3
v -0.2 1 2.2
v -0.2 1.1 2.3
v -0.2 1.1 2.2
v -0.0999999 0.8 2.3
v -0.0999999 0.8 2.2
v -0.0999999 0.8 -2.3
v -0.0999999 0.8 -2.4
v -0.0999999 1 2.3
v -0.0999999 1 2.2
v -0.0999999 1 -2.3
v -0.0999999 1 -2.4
v 0.1 0.7 2.3
v 0.1 0.7 2.2
v 0.1 0.8 2.3
v 0.1 0.8 2.2
v 0.1 1 2.3
v 0.1 1 2.2
v 0.1 1.1 2.3
v 0.1 1.1 2.2
v 0.2 0.5 -2.3
v 0.2 0.5 -2.4
v 0.2 0.6 2.3
v 0.2 0.6 2.2
v 0.2 0.6 -2.3
v 0.2 0.6 -2.4
v 0.2 0.7 2.3
v 0.2 0.7 2.2
v 0.2 0.7 -2.3
v 0.2 0.7 -2.4
v 0.2 0.8 -2.3
v 0.2 1 -2.3
v 0.2 1.1 2.3
v 0.2 1.1 2.2
v 0.2 1.1 -2.3
v 0.2 1.1 -2.4
v 0.2 1.2 2.3
v 0.2 1.2 2.2
v 0.2 1.2 -2.3
v 0.2 1.2 -2.4
v 0.2 1.3 -2.3
v 0.2 1.3 -2.4
v 0.3 0.5 2.3
v 0.3 0.5 2.2
v 0.3 0.6 2.3
v 0.3 0.6 2.2
v 0.3 1.2 2.3
v 0.3 1.2 2.2
v 0.3 1.3 2.3
v 0.3 1.3 2.2
v 0.4 0.5 2.4
v 0.4 0.5 2.3
v 0.4 0.5 -2.3
v 0.4 0.5 -2.4
v 0.4 0.6 2.3
v 0.4 0.6 2.2
v 0.4 0.6 -2.3
v 0.4 0.6 -2.4
v 0.4 0.7 -2.3
v 0.4 0.7 -2.4
v 0.4 1.1 -2.3
v 0.4 1.1 -2.4
v 0.4 1.2 2.3
v 0.4 1.2 2.2
v 0.4 1.2 -2.3
v 0.4 1.2 -2.4
v 0.4 1.3 2.4
v 0.4 1.3 2.3
v 0.4 1.3 -2.3
v 0.4 1.3 -2.4
v -0.4 0.5 2.4
v -0.4 0.5 2.3
v -0.4 0.5 -2.3
v -0.4 0.5 -2.4
v -0.4 0.6 2.3
v -0.4 0.6 2.2
v -0.4 0.6 -2.3
v -0.4 0.6 -2.4
v -0.4 0.7 -2.3
v -0.4 0.7 -2.4
v -0.4 1.1 -2.3
v -0.4 1.1 -2.4
v -0.4 1.2 2.3
v -0.4 1.2 2.2
v -0.4 1.2 -2.3
v -0.4 1.2 -2.4
v -0.4 1.3 2.4
v -0.4 1.3 2.3
v -0.4 1.3 -2.3
v -0.4 1.3 -2.4
v -0.3 0.5 2.3
v -0.3 0.5 2.2
v -0.3 0.6 2.3
v -0.3 0.6 2.2
v -0.3 1.2 2.3
v -0.3 1.2 2.2
v -0.3 1.3 2.3
v -0.3 1.3 2.2
v -0.2 0.5 -2.3
v -0.2 0.5 -2.4
v -0.2 0.6 2.3
v -0.2 0.6 2.2
v -0.2 0.6 -2.3
v -0.2 0.6 -2.4
v -0.2 0.7 2.3
v -0.2 0.7 2.2
v -0.2 0.7 -2.3
v -0.2 0.7 -2.4
v -0.2 0.8 -2.3
v -0.2 1 -2.3
v -0.2 1.1 2.3
v -0.2 1.1 2.2
v -0.2 1.1 -2.3
v -0.2 1.1 -2.4
v -0.2 1.2 2.3
v -0.2 1.2 2.2
v -0.2 1.2 -2.3
v -0.2 1.2 -2.4
v -0.2 1.3 -2.3
v -0.2 1.3 -2.4
v -0.0999999 0.7 2.3
v -0.0999999 0.7 2.2
v -0.0999999 0.8 2.3
v -0.0999999 0.8 2.2
v -0.0999999 1 2.3
v -0.0999999 1 2.2
v -0.0999999 1.1 2.3
v -0.0999999 1.1 2.2
v 0.1 0.8 2.3
v 0.1 0.8 2.2
v 0.1 0.8 -2.3
v 0.1 0.8 -2.4
v 0.1 1 2.3
v 0.1 1 2.2
v 0.1 1 -2.3
v 0.1 1 -2.4
v 0.2 0.7 2.3
v 0.2 0.7 2.2
v 0.2 0.8 2.3
v 0.2 0.8 2.2
v 0.2 1 2.3
v 0.2 1 2.2
v 0.2 1.1 2.3
v 0.2 1.1 2.2
v 0.3 0.5 -2.3
v 0.3 0.5 -2.4
v 0.3 0.6 2.3
v 0.3 0.6 2.2
v 0.3 0.6 -2.3
v 0.3 0.6 -2.4
v 0.3 0.7 2.3
v 0.3 0.7 2.2
v 0.3 0.7 -2.3
v 0.3 0.7 -2.4
v 0.3 1.1 2.3
v 0.3 1.1 2.2
v 0.3 1.1 -2.3
v 0.3 1.1 -2.4
v 0.3 1.2 2.3
v 0.3 1.2 2.2
v 0.3 1.2 -2.3
v 0.3 1.2 -2.4
v 0.3 1.3 -2.3
v 0.3 1.3 -2.4
v 0.4 0.4 2.4
v 0.4 0.4 2
v 0.4 0.4 -2
v 0.4 0.4 -2.4
v 0.4 0.5 2.4
v 0.4 0.5 2
v 0.4 0.5 -2
v 0.4 0.5 -2.4
v 0.4 1.3 2.4
v 0.4 1.3 2
v 0.4 1.3 -2
v 0.4 1.3 -2.4
v 0.4 1.4 2.4
v 0.4 1.4 2
v 0.4 1.4 -2
v 0.4 1.4 -2.4
v 0.5 0.5 2.4
v 0.5 0.5 2
v 0.5 0.5 -2
v 0.5 0.5 -2.4
v 0.5 1.3 2.4
v 0.5 1.3 2
v 0.5 1.3 -2
v 0.5 1.3 -2.4
v -0.5 0.5 2.4
v -0.5 1.3 2.4
v -0.4 0.4 2.4
v -0.4 0.5 2.4
v -0.4 1.3 2.4
v -0.4 1.4 2.4
v 0.4 0.4 2.4
v 0.4 0.5 2.4
v 0.4 1.3 2.4
v 0.4 1.4 2.4
v 0.5 0.5 2.4
v 0.5 1.3 2.4
v -0.4 0.5 2.3
v -0.4 0.6 2.3
v -0.4 1.2 2.3
v -0.4 1.3 2.3
v -0.3 0.5 2.3
v -0.3 0.6 2.3
v -0.3 0.7 2.3
v -0.3 1.1 2.3
v -0.3 1.2 2.3
v -0.3 1.3 2.3
v -0.2 0.6 2.3
v -0.2 0.7 2.3
v -0.2 0.8 2.3
v -0.2 1 2.3
v -0.2 1.1 2.3
v -0.2 1.2 2.3
v -0.0999999 0.7 2.3
v -0.0999999 0.8 2.3
v -0.0999999 1 2.3
v -0.0999999 1.1 2.3
v 0.1 0.7 2.3
v 0.1 0.8 2.3
v 0.1 1 2.3
v 0.1 1.1 2.3
v 0.2 0.6 2.3
v 0.2 0.7 2.3
v 0.2 0.8 2.3
v 0.2 1 2.3
v 0.2 1.1 2.3
v 0.2 1.2 2.3
v 0.3 0.5 2.3
v 0.3 0.6 2.3
v 0.3 0.7 2.3
v 0.3 1.1 2.3
v 0.3 1.2 2.3
v 0.3 1.3 2.3
v 0.4 0.5 2.3
v 0.4 0.6 2.3
v 0.4 1.2 2.3
v 0.4 1.3 2.3
v -0.4 0.6 2.2
v -0.4 1.2 2.2
v -0.3 0.5 2.2
v -0.3 0.6 2.2
v -0.3 0.7 2.2
v -0.3 1.1 2.2
v -0.3 1.2 2.2
v -0.3 1.3 2.2
v -0.2 0.6 2.2
v -0.2 0.7 2.2
v -0.2 0.8 2.2
v -0.2 1 2.2
v -0.2 1.1 2.2
v -0.2 1.2 2.2
v -0.0999999 0.7 2.2
v -0.0999999 0.8 2.2
v -0.0999999 1 2.2
v -0.0999999 1.1 2.2
v 0.1 0.7 2.2
v 0.1 0.8 2.2
v 0.1 1 2.2
v 0.1 1.1 2.2
v 0.2 0.6 2.2
v 0.2 0.7 2.2
v 0.2 0.8 2.2
v 0.2 1 2.2
v 0.2 1.1 2.2
v 0.2 1.2 2.2
v 0.3 0.5 2.2
v 0.3 0.6 2.2
v 0.3 0.7 2.2
v 0.3 1.1 2.2
v 0.3 1.2 2.2
v 0.3 1.3 2.2
v 0.4 0.6 2.2
v 0.4 1.2 2.2
v -0.5 0.5 -2
v -0.5 1.3 -2
v -0.4 0.4 -2
v -0.4 0.5 -2
v -0.4 1.3 -2
v -0.4 1.4 -2
v 0.4 0.4 -2
v 0.4 0.5 -2
v 0.4 1.3 -2
v 0.4 1.4 -2
v 0.5 0.5 -2
v 0.5 1.3 -2
v -0.5 0.5 2
v -0.5 1.3 2
v -0.4 0.4 2
v -0.4 0.5 2
v -0.4 1.3 2
v -0.4 1.4 2
v 0.4 0.4 2
v 0.4 0.5 2
v 0.4 1.3 2
v 0.4 1.4 2
v 0.5 0.5 2
v 0.5 1.3 2
v -0.4 0.5 -2.3
v -0.4 0.6 -2.3
v -0.4 0.7 -2.3
v -0.4 1.1 -2.3
v -0.4 1.2 -2.3
v -0.4 1.3 -2.3
v -0.3 0.5 -2.3
v -0.3 0.6 -2.3
v -0.3 0.7 -2.3
v -0.3 1.1 -2.3
v -0.3 1.2 -2.3
v -0.3 1.3 -2.3
v -0.2 0.5 -2.3
v -0.2 0.6 -2.3
v -0.2 0.7 -2.3
v -0.2 0.8 -2.3
v -0.2 1 -2.3
v -0.2 1.1 -2.3
v -0.2 1.2 -2.3
v -0.2 1.3 -2.3
v -0.0999999 0.7 -2.3
v -0.0999999 0.8 -2.3
v -0.0999999 1 -2.3
v -0.0999999 1.1 -2.3
v 0.1 0.7 -2.3
v 0.1 0.8 -2.3
v 0.1 1 -2.3
v 0.1 1.1 -2.3
v 0.2 0.5 -2.3
v 0.2 0.6 -2.3
v 0.2 0.7 -2.3
v 0.2 0.8 -2.3
v 0.2 1 -2.3
v 0.2 1.1 -2.3
v 0.2 1.2 -2.3
v 0.2 1.3 -2.3
v 0.3 0.5 -2.3
v 0.3 0.6 -2.3
v 0.3 0.7 -2.3
v 0.3 1.1 -2.3
v 0.3 1.2 -2.3
v 0.3 1.3 -2.3
v 0.4 0.5 -2.3
v 0.4 0.6 -2.3
v 0.4 0.7 -2.3
v 0.4 1.1 -2.3
v 0.4 1.2 -2.3
v 0.4 1.3 -2.3
v -0.5 0.5 -2.4
v -0.5 1.3 -2.4
v -0.4 0.4 -2.4
v -0.4 0.5 -2.4
v -0.4 0.6 -2.4
v -0.4 0.7 -2.4
v -0.4 1.1 -2.4
v -0.4 1.2 -2.4
v -0.4 1.3 -2.4
v -0.4 1.4 -2.4
v -0.3 0.5 -2.4
v -0.3 0.6 -2.4
v -0.3 0.7 -2.4
v -0.3 1.1 -2.4
v -0.3 1.2 -2.4
v -0.3 1.3 -2.4
v -0.2 0.5 -2.4
v -0.2 0.6 -2.4
v -0.2 0.7 -2.4
v -0.2 1.1 -2.4
v -0.2 1.2 -2.4
v -0.2 1.3 -2.4
v -0.0999999 0.8 -2.4
v -0.0999999 1 -2.4
v 0.1 0.8 -2.4
v 0.1 1 -2.4
v 0.2 0.5 -2.4
v 0.2 0.6 -2.4
v 0.2 0.7 -2.4
v 0.2 1.1 -2.4
v 0.2 1.2 -2.4
v 0.2 1.3 -2.4
v 0.3 0.5 -2.4
v 0.3 0.6 -2.4
v 0.3 0.7 -2.4
v 0.3 1.1 -2.4
v 0.3 1.2 -2.4
v 0.3 1.3 -2.4
v 0.4 0.4 -2.4
v 0.4 0.5 -2.4
v 0.4 0.6 -2.4
v 0.4 0.7 -2.4
v 0.4 1.1 -2.4
v 0.4 1.2 -2.4
v 0.4 1.3 -2.4
v 0.4 1.4 -2.4
v 0.5 0.5 -2.4
v 0.5 1.3 -2.4
v -0.4 0.4 2.4
v 0.4 0.4 2.4
v -0.4 0.4 2
v 0.4 0.4 2
v -0.4 0.4 -2
v 0.4 0.4 -2
v -0.4 0.4 -2.4
v 0.4 0.4 -2.4
v -0.5 0.5 2.4
v -0.4 0.5 2.4
v 0.4 0.5 2.4
v 0.5 0.5 2.4
v -0.5 0.5 2
v -0.4 0.5 2
v 0.4 0.5 2
v 0.5 0.5 2
v -0.5 0.5 -2
v -0.4 0.5 -2
v 0.4 0.5 -2
v 0.5 0.5 -2
v -0.5 0.5 -2.4
v -0.4 0.5 -2.4
v 0.4 0.5 -2.4
v 0.5 0.5 -2.4
v -0.3 0.6 2.3
v -0.2 0.6 2.3
v 0.2 0.6 2.3
v 0.3 0.6 2.3
v -0.3 0.6 2.2
v -0.2 0.6 2.2
v 0.2 0.6 2.2
v 0.3 0.6 2.2
v -0.4 0.6 -2.3
v -0.3 0.6 -2.3
v -0.2 0.6 -2.3
v 0.2 0.6 -2.3
v 0.3 0.6 -2.3
v 0.4 0.6 -2.3
v -0.4 0.6 -2.4
v -0.3 0.6 -2.4
v -0.2 0.6 -2.4
v 0.2 0.6 -2.4
v 0.3 0.6 -2.4
v 0.4 0.6 -2.4
v -0.2 0.7 2.3
v -0.0999999 0.7 2.3
v 0.1 0.7 2.3
v 0.2 0.7 2.3
v -0.2 0.7 2.2
v -0.0999999 0.7 2.2
v 0.1 0.7 2.2
v 0.2 0.7 2.2
v -0.0999999 0.8 2.3
v 0.1 0.8 2.3
v -0.0999999 0.8 2.2
v 0.1 0.8 2.2
v -0.0999999 0.8 -2.3
v 0.1 0.8 -2.3
v -0.0999999 0.8 -2.4
v 0.1 0.8 -2.4
v -0.2 1 2.3
v -0.0999999 1 2.3
v 0.1 1 2.3
v 0.2 1 2.3
v -0.2 1 2.2
v -0.0999999 1 2.2
v 0.1 1 2.2
v 0.2 1 2.2
v -0.3 1.1 2.3
v -0.2 1.1 2.3
v 0.2 1.1 2.3
v 0.3 1.1 2.3
v -0.3 1.1 2.2
v -0.2 1.1 2.2
v 0.2 1.1 2.2
v 0.3 1.1 2.2
v -0.4 1.1 -2.3
v -0.3 1.1 -2.3
v -0.2 1.1 -2.3
v -0.0999999 1.1 -2.3
v 0.1 1.1 -2.3
v 0.2 1.1 -2.3
v 0.3 1.1 -2.3
v 0.4 1.1 -2.3
v -0.4 1.1 -2.4
v -0.3 1.1 -2.4
v -0.2 1.1 -2.4
v 0.2 1.1 -2.4
v 0.3 1.1 -2.4
v 0.4 1.1 -2.4
v -0.4 1.2 2.3
v -0.3 1.2 2.3
v 0.3 1.2 2.3
v 0.4 1.2 2.3
v -0.4 1.2 2.2
v -0.3 1.2 2.2
v 0.3 1.2 2.2
v 0.4 1.2 2.2
v -0.4 1.3 2.4
v 0.4 1.3 2.4
v -0.4 1.3 2.3
v -0.3 1.3 2.3
v 0.3 1.3 2.3
v 0.4 1.3 2.3
v -0.3 1.3 2.2
v 0.3 1.3 2.2
v -0.4 1.3 -2.3
v -0.3 1.3 -2.3
v -0.2 1.3 -2.3
v 0.2 1.3 -2.3
v 0.3 1.3 -2.3
v 0.4 1.3 -2.3
v -0.4 1.3 -2.4
v -0.3 1.3 -2.4
v -0.2 1.3 -2.4
v 0.2 1.3 -2.4
v 0.3 1.3 -2.4
v 0.4 1.3 -2.4
v -0.4 0.5 2.4
v 0.4 0.5 2.4
v -0.4 0.5 2.3
v -0.3 0.5 2.3
v 0.3 0.5 2.3
v 0.4 0.5 2.3
v -0.3 0.5 2.2
v 0.3 0.5 2.2
v -0.4 0.5 -2.3
v -0.3 0.5 -2.3
v -0.2 0.5 -2.3
v 0.2 0.5 -2.3
v 0.3 0.5 -2.3
v 0.4 0.5 -2.3
v -0.4 0.5 -2.4
v -0.3 0.5 -2.4
v -0.2 0.5 -2.4
v 0.2 0.5 -2.4
v 0.3 0.5 -2.4
v 0.4 0.5 -2.4
v -0.4 0.6 2.3
v -0.3 0.6 2.3
v 0.3 0.6 2.3
v 0.4 0.6 2.3
v -0.4 0.6 2.2
v -0.3 0.6 2.2
v 0.3 0.6 2.2
v 0.4 0.6 2.2
v -0.3 0.7 2.3
v -0.2 0.7 2.3
v 0.2 0.7 2.3
v 0.3 0.7 2.3
v -0.3 0.7 2.2
v -0.2 0.7 2.2
v 0.2 0.7 2.2
v 0.3 0.7 2.2
v -0.4 0.7 -2.3
v -0.3 0.7 -2.3
v -0.2 0.7 -2.3
v -0.0999999 0.7 -2.3
v 0.1 0.7 -2.3
v 0.2 0.7 -2.3
v 0.3 0.7 -2.3
v 0.4 0.7 -2.3
v -0.4 0.7 -2.4
v -0.3 0.7 -2.4
v -0.2 0.7 -2.4
v 0.2 0.7 -2.4
v 0.3 0.7 -2.4
v 0.4 0.7 -2.4
v -0.2 0.8 2.3
v -0.0999999 0.8 2.3
v 0.1 0.8 2.3
v 0.2 0.8 2.3
v -0.2 0.8 2.2
v -0.0999999 0.8 2.2
v 0.1 0.8 2.2
v 0.2 0.8 2.2
v -0.0999999 1 2.3
v 0.1 1 2.3
v -0.0999999 1 2.2
v 0.1 1 2.2
v -0.0999999 1 -2.3
v 0.1 1 -2.3
v -0.0999999 1 -2.4
v 0.1 1 -2.4
v -0.2 1.1 2.3
v -0.0999999 1.1 2.3
v 0.1 1.1 2.3
v 0.2 1.1 2.3
v -0.2 1.1 2.2
v -0.0999999 1.1 2.2
v 0.1 1.1 2.2
v 0.2 1.1 2.2
v -0.3 1.2 2.3
v -0.2 1.2 2.3
v 0.2 1.2 2.3
v 0.3 1.2 2.3
v -0.3 1.2 2.2
v -0.2 1.2 2.2
v 0.2 1.2 2.2
v 0.3 1.2 2.2
v -0.4 1.2 -2.3
v -0.3 1.2 -2.3
v -0.2 1.2 -2.3
v 0.2 1.2 -2.3
v 0.3 1.2 -2.3
v 0.4 1.2 -2.3
v -0.4 1.2 -2.4
v -0.3 1.2 -2.4
v -0.2 1.2 -2.4
v 0.2 1.2 -2.4
v 0.3 1.2 -2.4
v 0.4 1.2 -2.4
v -0.5 1.3 2.4
v -0.4 1.3 2.4
v 0.4 1.3 2.4
v 0.5 1.3 2.4
v -0.5 1.3 2
v -0.4 1.3 2
v 0.4 1.3 2
v 0.5 1.3 2
v -0.5 1.3 -2
v -0.4 1.3 -2
v 0.4 1.3 -2
v 0.5 1.3 -2
v -0.5 1.3 -2.4
v -0.4 1.3 -2.4
v 0.4 1.3 -2.4
v 0.5 1.3 -2.4
v -0.4 1.4 2.4
v 0.4 1.4 2.4
v -0.4 1.4 2
v 0.4 1.4 2
v -0.4 1.4 -2
v 0.4 1.4 -2
v -0.4 1.4 -2.4
v 0.4 1.4 -2.4

# faces
f 5/2/1 2/2/1 1/2/1
f 6/2/1 2/2/1 5/2/1
f 7/2/1 4/2/1 3/2/1
f 8/2/1 4/2/1 7/2/1
f 13/2/1 10/2/1 9/2/1
f 14/2/1 10/2/1 13/2/1
f 15/2/1 12/2/1 11/2/1
f 16/2/1 12/2/1 15/2/1
f 21/2/1 18/2/1 17/2/1
f 22/2/1 18/2/1 21/2/1
f 23/2/1 20/2/1 19/2/1
f 24/2/1 20/2/1 23/2/1
f 29/4/1 26/4/1 25/4/1
f 30/4/1 26/4/1 29/4/1
f 31/3/1 28/3/1 27/3/1
f 32/3/1 28/3/1 31/3/1
f 37/4/1 34/4/1 33/4/1
f 38/4/1 34/4/1 37/4/1
f 39/3/1 36/3/1 35/3/1
f 40/3/1 36/3/1 39/3/1
f 43/4/1 42/4/1 41/4/1
f 44/4/1 42/4/1 43/4/1
f 47/3/1 46/3/1 45/3/1
f 48/3/1 46/3/1 47/3/1
f 51/3/1 50/3/1 49/3/1
f 52/3/1 50/3/1 51/3/1
f 57/1/1 54/1/1 53/1/1
f 58/1/1 54/1/1 57/1/1
f 59/4/1 56/4/1 55/4/1
f 60/4/1 56/4/1 59/4/1
f 63/3/1 62/3/1 61/3/1
f 64/3/1 62/3/1 63/3/1
f 67/3/1 66/3/1 65/3/1
f 68/3/1 66/3/1 67/3/1
f 73/4/1 70/4/1 69/4/1
f 74/4/1 70/4/1 73/4/1
f 75/3/1 72/3/1 71/3/1
f 76/3/1 72/3/1 75/3/1
f 79/4/1 78/4/1 77/4/1
f 80/4/1 78/4/1 79/4/1
f 83/4/1 78/4/1 80/4/1
f 84/4/1 78/4/1 83/4/1
f 85/3/1 82/3/1 81/3/1
f 86/3/1 82/3/1 85/3/1
f 89/4/1 88/4/1 87/4/1
f 90/4/1 88/4/1 89/4/1
f 93/3/1 92/3/1 91/3/1
f 94/3/1 92/3/1 93/3/1
f 97/3/1 96/3/1 95/3/1
f 98/3/1 96/3/1 97/3/1
f 103/2/1 100/2/1 99/2/1
f 105/2/1 102/2/1 101/2/1
f 106/2/1 102/2/1 105/2/1
f 109/2/1 108/2/1 107/2/1
f 110/2/1 108/2/1 109/2/1
f 111/2/1 104/2/1 103/2/1
f 111/2/1 103/2/1 99/2/1
f 112/2/1 104/2/1 111/2/1
f 115/2/1 111/2/1 99/2/1
f 116/2/1 111/2/1 115/2/1
f 117/2/1 114/2/1 113/2/1
f 118/2/1 114/2/1 117/2/1
f 119/2/2 120/2/2 123/2/2
f 121/2/2 122/2/2 125/2/2
f 125/2/2 122/2/2 126/2/2
f 127/2/2 128/2/2 129/2/2
f 129/2/2 128/2/2 130/2/2
f 123/2/2 124/2/2 131/2/2
f 119/2/2 123/2/2 131/2/2
f 131/2/2 124/2/2 132/2/2
f 119/2/2 131/2/2 135/2/2
f 135/2/2 131/2/2 136/2/2
f 133/2/2 134/2/2 137/2/2
f 137/2/2 134/2/2 138/2/2
f 139/3/2 140/3/2 141/3/2
f 141/3/2 140/3/2 142/3/2
f 143/3/2 144/3/2 145/3/2
f 145/3/2 144/3/2 146/3/2
f 147/4/2 148/4/2 151/4/2
f 151/4/2 148/4/2 152/4/2
f 149/3/2 150/3/2 153/3/2
f 153/3/2 150/3/2 154/3/2
f 155/4/2 156/4/2 157/4/2
f 157/4/2 156/4/2 158/4/2
f 158/4/2 156/4/2 161/4/2
f 161/4/2 156/4/2 162/4/2
f 159/3/2 160/3/2 163/3/2
f 163/3/2 160/3/2 164/3/2
f 165/4/2 166/4/2 167/4/2
f 167/4/2 166/4/2 168/4/2
f 169/3/2 170/3/2 171/3/2
f 171/3/2 170/3/2 172/3/2
f 173/3/2 174/3/2 175/3/2
f 175/3/2 174/3/2 176/3/2
f 177/1/2 178/1/2 181/1/2
f 181/1/2 178/1/2 182/1/2
f 179/4/2 180/4/2 183/4/2
f 183/4/2 180/4/2 184/4/2
f 185/3/2 186/3/2 187/3/2
f 187/3/2 186/3/2 188/3/2
f 189/3/2 190/3/2 191/3/2
f 191/3/2 190/3/2 192/3/2
f 193/4/2 194/4/2 197/4/2
f 197/4/2 194/4/2 198/4/2
f 195/3/2 196/3/2 199/3/2
f 199/3/2 196/3/2 200/3/2
f 201/4/2 202/4/2 205/4/2
f 205/4/2 202/4/2 206/4/2
f 203/3/2 204/3/2 207/3/2
f 207/3/2 204/3/2 208/3/2
f 209/4/2 210/4/2 211/4/2
f 211/4/2 210/4/2 212/4/2
f 213/2/2 214/2/2 217/2/2
f 217/2/2 214/2/2 218/2/2
f 215/2/2 216/2/2 219/2/2
f 219/2/2 216/2/2 220/2/2
f 221/2/2 222/2/2 225/2/2
f 225/2/2 222/2/2 226/2/2
f 223/2/2 224/2/2 227/2/2
f 227/2/2 224/2/2 228/2/2
f 229/2/2 230/2/2 233/2/2
f 233/2/2 230/2/2 234/2/2
f 231/2/2 232/2/2 235/2/2
f 235/2/2 232/2/2 236/2/2
f 240/2/3 238/2/3 237/2/3
f 241/2/3 238/2/3 240/2/3
f 243/2/3 240/2/3 239/2/3
f 244/2/3 240/2/3 243/2/3
f 245/2/3 242/2/3 241/2/3
f 246/2/3 242/2/3 245/2/3
f 247/2/3 245/2/3 244/2/3
f 248/2/3 245/2/3 247/2/3
f 253/3/3 250/3/3 249/3/3
f 254/3/3 250/3/3 253/3/3
f 257/3/3 252/3/3 251/3/3
f 258/3/3 252/3/3 257/3/3
f 259/3/3 255/3/3 254/3/3
f 260/3/3 255/3/3 259/3/3
f 263/3/3 257/3/3 256/3/3
f 264/3/3 257/3/3 263/3/3
f 265/3/3 261/3/3 260/3/3
f 266/3/3 261/3/3 265/3/3
f 267/3/3 263/3/3 262/3/3
f 268/3/3 263/3/3 267/3/3
f 270/1/3 267/1/3 266/1/3
f 271/1/3 267/1/3 270/1/3
f 274/3/3 270/3/3 269/3/3
f 275/3/3 270/3/3 274/3/3
f 276/3/3 272/3/3 271/3/3
f 277/3/3 272/3/3 276/3/3
f 280/3/3 274/3/3 273/3/3
f 281/3/3 274/3/3 280/3/3
f 282/3/3 278/3/3 277/3/3
f 283/3/3 278/3/3 282/3/3
f 285/3/3 280/3/3 279/3/3
f 286/3/3 280/3/3 285/3/3
f 287/3/3 284/3/3 283/3/3
f 288/3/3 284/3/3 287/3/3
f 292/2/3 290/2/3 289/2/3
f 293/2/3 290/2/3 292/2/3
f 294/2/3 290/2/3 293/2/3
f 295/2/3 290/2/3 294/2/3
f 297/2/3 292/2/3 291/2/3
f 298/2/3 294/2/3 293/2/3
f 299/2/3 294/2/3 298/2/3
f 300/2/3 294/2/3 299/2/3
f 301/2/3 294/2/3 300/2/3
f 302/2/3 296/2/3 295/2/3
f 303/2/3 298/2/3 297/2/3
f 304/2/3 300/2/3 299/2/3
f 305/2/3 300/2/3 304/2/3
f 306/2/3 302/2/3 301/2/3
f 307/2/3 303/2/3 297/2/3
f 307/2/3 304/2/3 303/2/3
f 308/2/3 304/2/3 307/2/3
f 309/2/3 306/2/3 305/2/3
f 310/2/3 302/2/3 306/2/3
f 310/2/3 306/2/3 309/2/3
f 311/2/3 297/2/3 291/2/3
f 311/2/3 307/2/3 297/2/3
f 312/2/3 307/2/3 311/2/3
f 313/2/3 309/2/3 308/2/3
f 314/2/3 309/2/3 313/2/3
f 315/2/3 302/2/3 310/2/3
f 316/2/3 296/2/3 302/2/3
f 316/2/3 302/2/3 315/2/3
f 317/2/3 311/2/3 291/2/3
f 318/2/3 311/2/3 317/2/3
f 319/2/3 314/2/3 313/2/3
f 319/2/3 315/2/3 314/2/3
f 319/2/3 313/2/3 312/2/3
f 320/2/3 315/2/3 319/2/3
f 321/2/3 296/2/3 316/2/3
f 322/2/3 296/2/3 321/2/3
f 323/2/3 320/2/3 319/2/3
f 323/2/3 321/2/3 320/2/3
f 323/2/3 319/2/3 318/2/3
f 324/2/3 321/2/3 323/2/3
f 328/2/3 326/2/3 325/2/3
f 329/2/3 326/2/3 328/2/3
f 331/2/3 328/2/3 327/2/3
f 331/2/3 330/2/3 329/2/3
f 331/2/3 329/2/3 328/2/3
f 332/2/3 330/2/3 331/2/3
f 333/2/3 330/2/3 332/2/3
f 334/2/3 330/2/3 333/2/3
f 335/2/3 333/2/3 332/2/3
f 336/2/3 333/2/3 335/2/3
f 337/2/4 338/2/4 340/2/4
f 340/2/4 338/2/4 341/2/4
f 339/2/4 340/2/4 343/2/4
f 341/2/4 342/2/4 343/2/4
f 340/2/4 341/2/4 343/2/4
f 343/2/4 342/2/4 344/2/4
f 344/2/4 342/2/4 345/2/4
f 345/2/4 342/2/4 346/2/4
f 344/2/4 345/2/4 347/2/4
f 347/2/4 345/2/4 348/2/4
f 349/4/4 350/4/4 355/4/4
f 355/4/4 350/4/4 356/4/4
f 351/1/4 352/1/4 357/1/4
f 357/1/4 352/1/4 358/1/4
f 353/4/4 354/4/4 359/4/4
f 359/4/4 354/4/4 360/4/4
f 363/4/4 364/4/4 369/4/4
f 364/1/4 365/1/4 370/1/4
f 369/4/4 364/4/4 370/4/4
f 365/4/4 366/4/4 371/4/4
f 370/1/4 365/1/4 371/1/4
f 371/4/4 366/4/4 372/4/4
f 369/1/4 370/1/4 373/1/4
f 373/1/4 370/1/4 374/1/4
f 371/1/4 372/1/4 375/1/4
f 375/1/4 372/1/4 376/1/4
f 361/1/4 362/1/4 377/1/4
f 377/1/4 362/1/4 378/1/4
f 373/4/4 374/4/4 379/4/4
f 374/1/4 375/1/4 380/1/4
f 379/4/4 374/4/4 380/4/4
f 375/4/4 376/4/4 381/4/4
f 380/1/4 375/1/4 381/1/4
f 381/4/4 376/4/4 382/4/4
f 367/1/4 368/1/4 383/1/4
f 383/1/4 368/1/4 384/1/4
f 385/4/4 386/4/4 391/4/4
f 391/4/4 386/4/4 392/4/4
f 387/1/4 388/1/4 393/1/4
f 393/1/4 388/1/4 394/1/4
f 389/4/4 390/4/4 395/4/4
f 395/4/4 390/4/4 396/4/4
f 397/2/4 398/2/4 400/2/4
f 400/2/4 398/2/4 401/2/4
f 401/2/4 398/2/4 402/2/4
f 402/2/4 398/2/4 403/2/4
f 403/2/4 398/2/4 404/2/4
f 404/2/4 398/2/4 405/2/4
f 399/2/4 400/2/4 407/2/4
f 401/4/4 402/4/4 408/4/4
f 408/4/4 402/4/4 409/4/4
f 403/4/4 404/4/4 410/4/4
f 410/4/4 404/4/4 411/4/4
f 405/2/4 406/2/4 412/2/4
f 410/4/4 411/4/4 413/4/4
f 411/4/4 412/4/4 413/4/4
f 408/4/4 409/4/4 413/4/4
f 399/2/4 407/2/4 413/2/4
f 409/4/4 410/4/4 413/4/4
f 407/4/4 408/4/4 413/4/4
f 413/4/4 412/4/4 414/4/4
f 414/4/4 412/4/4 415/4/4
f 415/4/4 412/4/4 416/4/4
f 416/4/4 412/4/4 417/4/4
f 412/2/4 406/2/4 418/2/4
f 417/4/4 412/4/4 418/4/4
f 419/4/4 420/4/4 421/4/4
f 421/4/4 420/4/4 422/4/4
f 399/2/4 413/2/4 423/2/4
f 414/4/4 415/4/4 424/4/4
f 424/4/4 415/4/4 425/4/4
f 416/4/4 417/4/4 426/4/4
f 426/4/4 417/4/4 427/4/4
f 418/2/4 406/2/4 428/2/4
f 424/4/4 425/4/4 429/4/4
f 427/4/4 428/4/4 429/4/4
f 423/4/4 424/4/4 429/4/4
f 426/4/4 427/4/4 429/4/4
f 425/4/4 426/4/4 429/4/4
f 399/2/4 423/2/4 429/2/4
f 429/4/4 428/4/4 430/4/4
f 430/4/4 428/4/4 431/4/4
f 431/4/4 428/4/4 432/4/4
f 432/4/4 428/4/4 433/4/4
f 428/2/4 406/2/4 434/2/4
f 433/4/4 428/4/4 434/4/4
f 399/2/4 429/2/4 435/2/4
f 435/2/4 429/2/4 436/2/4
f 430/4/4 431/4/4 437/4/4
f 437/4/4 431/4/4 438/4/4
f 432/4/4 433/4/4 439/4/4
f 439/4/4 433/4/4 440/4/4
f 434/2/4 406/2/4 441/2/4
f 441/2/4 406/2/4 442/2/4
f 437/2/4 438/2/4 443/2/4
f 439/2/4 440/2/4 443/2/4
f 440/2/4 441/2/4 443/2/4
f 438/2/4 439/2/4 443/2/4
f 436/2/4 437/2/4 443/2/4
f 443/2/4 441/2/4 444/2/4
f 447/2/5 446/2/5 445/2/5
f 448/2/5 446/2/5 447/2/5
f 451/2/5 450/2/5 449/2/5
f 452/2/5 450/2/5 451/2/5
f 457/2/5 454/2/5 453/2/5
f 458/2/5 454/2/5 457/2/5
f 459/2/5 456/2/5 455/2/5
f 460/2/5 456/2/5 459/2/5
f 465/2/5 462/2/5 461/2/5
f 466/2/5 462/2/5 465/2/5
f 467/2/5 464/2/5 463/2/5
f 468/2/5 464/2/5 467/2/5
f 473/3/5 470/3/5 469/3/5
f 474/3/5 470/3/5 473/3/5
f 475/3/5 472/3/5 471/3/5
f 476/3/5 472/3/5 475/3/5
f 483/4/5 478/4/5 477/4/5
f 484/4/5 478/4/5 483/4/5
f 485/4/5 480/4/5 479/4/5
f 486/4/5 480/4/5 485/4/5
f 487/4/5 482/4/5 481/4/5
f 488/4/5 482/4/5 487/4/5
f 493/3/5 490/3/5 489/3/5
f 494/3/5 490/3/5 493/3/5
f 495/3/5 492/3/5 491/3/5
f 496/3/5 492/3/5 495/3/5
f 499/1/5 498/1/5 497/1/5
f 500/1/5 498/1/5 499/1/5
f 503/4/5 502/4/5 501/4/5
f 504/4/5 502/4/5 503/4/5
f 509/3/5 506/3/5 505/3/5
f 510/3/5 506/3/5 509/3/5
f 511/3/5 508/3/5 507/3/5
f 512/3/5 508/3/5 511/3/5
f 517/3/5 514/3/5 513/3/5
f 518/3/5 514/3/5 517/3/5
f 519/3/5 516/3/5 515/3/5
f 520/3/5 516/3/5 519/3/5
f 529/4/5 522/4/5 521/4/5
f 530/4/5 522/4/5 529/4/5
f 531/4/5 526/4/5 525/4/5
f 531/4/5 524/4/5 523/4/5
f 531/4/5 525/4/5 524/4/5
f 532/4/5 526/4/5 531/4/5
f 533/4/5 528/4/5 527/4/5
f 534/4/5 528/4/5 533/4/5
f 539/3/5 536/3/5 535/3/5
f 540/3/5 536/3/5 539/3/5
f 541/3/5 538/3/5 537/3/5
f 542/3/5 538/3/5 541/3/5
f 545/2/5 544/2/5 543/2/5
f 546/2/5 544/2/5 545/2/5
f 547/2/5 544/2/5 546/2/5
f 548/2/5 544/2/5 547/2/5
f 549/2/5 547/2/5 546/2/5
f 550/2/5 547/2/5 549/2/5
f 557/2/5 552/2/5 551/2/5
f 558/2/5 552/2/5 557/2/5
f 559/2/5 554/2/5 553/2/5
f 560/2/5 554/2/5 559/2/5
f 561/2/5 556/2/5 555/2/5
f 562/2/5 556/2/5 561/2/5
f 563/2/6 564/2/6 565/2/6
f 565/2/6 564/2/6 566/2/6
f 566/2/6 564/2/6 567/2/6
f 567/2/6 564/2/6 568/2/6
f 566/2/6 567/2/6 569/2/6
f 569/2/6 567/2/6 570/2/6
f 571/2/6 572/2/6 577/2/6
f 577/2/6 572/2/6 578/2/6
f 573/2/6 574/2/6 579/2/6
f 579/2/6 574/2/6 580/2/6
f 575/2/6 576/2/6 581/2/6
f 581/2/6 576/2/6 582/2/6
f 583/3/6 584/3/6 587/3/6
f 587/3/6 584/3/6 588/3/6
f 585/3/6 586/3/6 589/3/6
f 589/3/6 586/3/6 590/3/6
f 591/3/6 592/3/6 595/3/6
f 595/3/6 592/3/6 596/3/6
f 593/3/6 594/3/6 597/3/6
f 597/3/6 594/3/6 598/3/6
f 599/4/6 600/4/6 607/4/6
f 607/4/6 600/4/6 608/4/6
f 603/4/6 604/4/6 609/4/6
f 601/4/6 602/4/6 609/4/6
f 602/4/6 603/4/6 609/4/6
f 609/4/6 604/4/6 610/4/6
f 605/4/6 606/4/6 611/4/6
f 611/4/6 606/4/6 612/4/6
f 613/3/6 614/3/6 617/3/6
f 617/3/6 614/3/6 618/3/6
f 615/3/6 616/3/6 619/3/6
f 619/3/6 616/3/6 620/3/6
f 621/1/6 622/1/6 623/1/6
f 623/1/6 622/1/6 624/1/6
f 625/4/6 626/4/6 627/4/6
f 627/4/6 626/4/6 628/4/6
f 629/3/6 630/3/6 633/3/6
f 633/3/6 630/3/6 634/3/6
f 631/3/6 632/3/6 635/3/6
f 635/3/6 632/3/6 636/3/6
f 637/3/6 638/3/6 641/3/6
f 641/3/6 638/3/6 642/3/6
f 639/3/6 640/3/6 643/3/6
f 643/3/6 640/3/6 644/3/6
f 645/4/6 646/4/6 651/4/6
f 651/4/6 646/4/6 652/4/6
f 647/4/6 648/4/6 653/4/6
f 653/4/6 648/4/6 654/4/6
f 649/4/6 650/4/6 655/4/6
f 655/4/6 650/4/6 656/4/6
f 657/2/6 658/2/6 661/2/6
f 661/2/6 658/2/6 662/2/6
f 659/2/6 660/2/6 663/2/6
f 663/2/6 660/2/6 664/2/6
f 665/2/6 666/2/6 669/2/6
f 669/2/6 666/2/6 670/2/6
f 667/2/6 668/2/6 671/2/6
f 671/2/6 668/2/6 672/2/6
f 673/2/6 674/2/6 675/2/6
f 675/2/6 674/2/6 676/2/6
f 677/2/6 678/2/6 679/2/6
f 679/2/6 678/2/6 680/2/6
