# MagicaVoxel @ Ephtracy

# group
o Compresseur

# material
mtllib Compresseur-1-Compresseur.mtl
usemtl palette

# normals
vn -1 0 0
vn 1 0 0
vn 0 0 1
vn 0 0 -1
vn 0 -1 0
vn 0 1 0

# texcoords
vt 0.427734 0.5
vt 0.716797 0.5
vt 0.970703 0.5
vt 0.986328 0.5
vt 0.990234 0.5

# verts
v -1 0.3 1.1
v -1 0.3 -1.1
v -1 0.4 1
v -1 0.4 -1
v -1 1.4 1
v -1 1.4 -1
v -1 1.5 1.1
v -1 1.5 -1.1
v -0.9 0 1.9
v -0.9 0 -1.9
v -0.9 0.3 1.1
v -0.9 0.3 -1.1
v -0.9 0.4 1
v -0.9 0.4 -1
v -0.9 1.4 1
v -0.9 1.4 -1
v -0.9 1.5 1.1
v -0.9 1.5 -1.1
v -0.9 1.8 1.9
v -0.9 1.8 -1.9
v -0.8 0 2
v -0.8 0 1.9
v -0.8 0 -1.9
v -0.8 0 -2
v -0.8 1.8 2
v -0.8 1.8 1.9
v -0.8 1.8 -1.9
v -0.8 1.8 -2
v -0.8 1.9 1.9
v -0.8 1.9 -1.9
v -0.6 1.9 -0.5
v -0.6 1.9 -0.6
v -0.6 2 -0.5
v -0.6 2 -0.6
v -0.5 1.9 -0.4
v -0.5 1.9 -0.5
v -0.5 1.9 -0.6
v -0.5 1.9 -0.7
v -0.5 2 -0.4
v -0.5 2 -0.5
v -0.5 2 -0.6
v -0.5 2 -0.7
v -0.4 1.9 -0.7
v -0.4 1.9 -0.8
v -0.4 2 -0.7
v -0.4 2 -0.8
v -0.3 1.9 -0.8
v -0.3 1.9 -0.9
v -0.3 2 -0.8
v -0.3 2 -0.9
v -0.2 1.9 0.9
v -0.2 1.9 -0.4
v -0.2 1.9 -0.9
v -0.2 1.9 -1
v -0.2 2 0.9
v -0.2 2 -0.4
v -0.2 2 -0.9
v -0.2 2 -1
v -0.1 1.9 1
v -0.1 1.9 0.9
v -0.1 1.9 -1
v -0.1 1.9 -1.1
v -0.1 2 1
v -0.1 2 0.9
v -0.1 2 -1
v -0.1 2 -1.1
v 0.1 1.9 1
v 0.1 1.9 0.9
v 0.1 1.9 -1
v 0.1 1.9 -1.1
v 0.1 2 1
v 0.1 2 0.9
v 0.1 2 -1
v 0.1 2 -1.1
v 0.2 1.9 0.9
v 0.2 1.9 -0.4
v 0.2 1.9 -0.9
v 0.2 1.9 -1
v 0.2 2 0.9
v 0.2 2 -0.4
v 0.2 2 -0.9
v 0.2 2 -1
v 0.3 1.9 -0.8
v 0.3 1.9 -0.9
v 0.3 2 -0.8
v 0.3 2 -0.9
v 0.4 1.9 -0.7
v 0.4 1.9 -0.8
v 0.4 2 -0.7
v 0.4 2 -0.8
v 0.5 1.9 -0.4
v 0.5 1.9 -0.5
v 0.5 1.9 -0.6
v 0.5 1.9 -0.7
v 0.5 2 -0.4
v 0.5 2 -0.5
v 0.5 2 -0.6
v 0.5 2 -0.7
v 0.6 1.9 -0.5
v 0.6 1.9 -0.6
v 0.6 2 -0.5
v 0.6 2 -0.6
v 0.8 0 2
v 0.8 0 1.9
v 0.8 0 -1.9
v 0.8 0 -2
v 0.8 1.8 2
v 0.8 1.8 1.9
v 0.8 1.8 -1.9
v 0.8 1.8 -2
v 0.8 1.9 1.9
v 0.8 1.9 -1.9
v 0.9 0 1.9
v 0.9 0 -1.9
v 0.9 0.3 1.1
v 0.9 0.3 -1.1
v 0.9 0.4 1
v 0.9 0.4 -1
v 0.9 1.4 1
v 0.9 1.4 -1
v 0.9 1.5 1.1
v 0.9 1.5 -1.1
v 0.9 1.8 1.9
v 0.9 1.8 -1.9
v 1 0.3 1.1
v 1 0.3 -1.1
v 1 0.4 1
v 1 0.4 -1
v 1 1.4 1
v 1 1.4 -1
v 1 1.5 1.1
v 1 1.5 -1.1
v -0.8 0 2
v -0.8 1.8 2
v 0.8 0 2
v 0.8 1.8 2
v -0.9 0 1.9
v -0.9 1.8 1.9
v -0.8 0 1.9
v -0.8 1.8 1.9
v -0.8 1.9 1.9
v 0.8 0 1.9
v 0.8 1.8 1.9
v 0.8 1.9 1.9
v 0.9 0 1.9
v 0.9 1.8 1.9
v -1 0.3 1.1
v -1 1.5 1.1
v -0.9 0.3 1.1
v -0.9 1.5 1.1
v 0.9 0.3 1.1
v 0.9 1.5 1.1
v 1 0.3 1.1
v 1 1.5 1.1
v -0.1 1.9 1
v -0.1 2 1
v 0.1 1.9 1
v 0.1 2 1
v -0.2 1.9 0.9
v -0.2 2 0.9
v -0.1 1.9 0.9
v -0.1 2 0.9
v 0.1 1.9 0.9
v 0.1 2 0.9
v 0.2 1.9 0.9
v 0.2 2 0.9
v -0.5 1.9 -0.4
v -0.5 2 -0.4
v -0.2 1.9 -0.4
v -0.2 2 -0.4
v 0.2 1.9 -0.4
v 0.2 2 -0.4
v 0.5 1.9 -0.4
v 0.5 2 -0.4
v -0.6 1.9 -0.5
v -0.6 2 -0.5
v -0.5 1.9 -0.5
v -0.5 2 -0.5
v 0.5 1.9 -0.5
v 0.5 2 -0.5
v 0.6 1.9 -0.5
v 0.6 2 -0.5
v -1 0.4 -1
v -1 1.4 -1
v -0.9 0.4 -1
v -0.9 1.4 -1
v 0.9 0.4 -1
v 0.9 1.4 -1
v 1 0.4 -1
v 1 1.4 -1
v -1 0.4 1
v -1 1.4 1
v -0.9 0.4 1
v -0.9 1.4 1
v 0.9 0.4 1
v 0.9 1.4 1
v 1 0.4 1
v 1 1.4 1
v -0.6 1.9 -0.6
v -0.6 2 -0.6
v -0.5 1.9 -0.6
v -0.5 2 -0.6
v 0.5 1.9 -0.6
v 0.5 2 -0.6
v 0.6 1.9 -0.6
v 0.6 2 -0.6
v -0.5 1.9 -0.7
v -0.5 2 -0.7
v -0.4 1.9 -0.7
v -0.4 2 -0.7
v 0.4 1.9 -0.7
v 0.4 2 -0.7
v 0.5 1.9 -0.7
v 0.5 2 -0.7
v -0.4 1.9 -0.8
v -0.4 2 -0.8
v -0.3 1.9 -0.8
v -0.3 2 -0.8
v 0.3 1.9 -0.8
v 0.3 2 -0.8
v 0.4 1.9 -0.8
v 0.4 2 -0.8
v -0.3 1.9 -0.9
v -0.3 2 -0.9
v -0.2 1.9 -0.9
v -0.2 2 -0.9
v 0.2 1.9 -0.9
v 0.2 2 -0.9
v 0.3 1.9 -0.9
v 0.3 2 -0.9
v -0.2 1.9 -1
v -0.2 2 -1
v -0.1 1.9 -1
v -0.1 2 -1
v 0.1 1.9 -1
v 0.1 2 -1
v 0.2 1.9 -1
v 0.2 2 -1
v -1 0.3 -1.1
v -1 1.5 -1.1
v -0.9 0.3 -1.1
v -0.9 1.5 -1.1
v -0.1 1.9 -1.1
v -0.1 2 -1.1
v 0.1 1.9 -1.1
v 0.1 2 -1.1
v 0.9 0.3 -1.1
v 0.9 1.5 -1.1
v 1 0.3 -1.1
v 1 1.5 -1.1
v -0.9 0 -1.9
v -0.9 1.8 -1.9
v -0.8 0 -1.9
v -0.8 1.8 -1.9
v -0.8 1.9 -1.9
v 0.8 0 -1.9
v 0.8 1.8 -1.9
v 0.8 1.9 -1.9
v 0.9 0 -1.9
v 0.9 1.8 -1.9
v -0.8 0 -2
v -0.8 1.8 -2
v 0.8 0 -2
v 0.8 1.8 -2
v -0.8 0 2
v 0.8 0 2
v -0.9 0 1.9
v -0.8 0 1.9
v 0.8 0 1.9
v 0.9 0 1.9
v -0.9 0 -1.9
v -0.8 0 -1.9
v 0.8 0 -1.9
v 0.9 0 -1.9
v -0.8 0 -2
v 0.8 0 -2
v -1 0.3 1.1
v -0.9 0.3 1.1
v 0.9 0.3 1.1
v 1 0.3 1.1
v -1 0.3 -1.1
v -0.9 0.3 -1.1
v 0.9 0.3 -1.1
v 1 0.3 -1.1
v -1 1.4 1
v -0.9 1.4 1
v 0.9 1.4 1
v 1 1.4 1
v -1 1.4 -1
v -0.9 1.4 -1
v 0.9 1.4 -1
v 1 1.4 -1
v -1 0.4 1
v -0.9 0.4 1
v 0.9 0.4 1
v 1 0.4 1
v -1 0.4 -1
v -0.9 0.4 -1
v 0.9 0.4 -1
v 1 0.4 -1
v -1 1.5 1.1
v -0.9 1.5 1.1
v 0.9 1.5 1.1
v 1 1.5 1.1
v -1 1.5 -1.1
v -0.9 1.5 -1.1
v 0.9 1.5 -1.1
v 1 1.5 -1.1
v -0.8 1.8 2
v 0.8 1.8 2
v -0.9 1.8 1.9
v -0.8 1.8 1.9
v 0.8 1.8 1.9
v 0.9 1.8 1.9
v -0.9 1.8 -1.9
v -0.8 1.8 -1.9
v 0.8 1.8 -1.9
v 0.9 1.8 -1.9
v -0.8 1.8 -2
v 0.8 1.8 -2
v -0.8 1.9 1.9
v 0.8 1.9 1.9
v -0.1 1.9 1
v 0.1 1.9 1
v -0.2 1.9 0.9
v -0.1 1.9 0.9
v 0.1 1.9 0.9
v 0.2 1.9 0.9
v -0.5 1.9 -0.4
v -0.2 1.9 -0.4
v 0.2 1.9 -0.4
v 0.5 1.9 -0.4
v -0.6 1.9 -0.5
v -0.5 1.9 -0.5
v 0.5 1.9 -0.5
v 0.6 1.9 -0.5
v -0.6 1.9 -0.6
v -0.5 1.9 -0.6
v 0.5 1.9 -0.6
v 0.6 1.9 -0.6
v -0.5 1.9 -0.7
v -0.4 1.9 -0.7
v 0.4 1.9 -0.7
v 0.5 1.9 -0.7
v -0.4 1.9 -0.8
v -0.3 1.9 -0.8
v 0.3 1.9 -0.8
v 0.4 1.9 -0.8
v -0.3 1.9 -0.9
v -0.2 1.9 -0.9
v 0.2 1.9 -0.9
v 0.3 1.9 -0.9
v -0.2 1.9 -1
v -0.1 1.9 -1
v 0.1 1.9 -1
v 0.2 1.9 -1
v -0.1 1.9 -1.1
v 0.1 1.9 -1.1
v -0.8 1.9 -1.9
v 0.8 1.9 -1.9
v -0.1 2 1
v 0.1 2 1
v -0.2 2 0.9
v -0.1 2 0.9
v 0.1 2 0.9
v 0.2 2 0.9
v -0.5 2 -0.4
v -0.2 2 -0.4
v 0.2 2 -0.4
v 0.5 2 -0.4
v -0.6 2 -0.5
v -0.5 2 -0.5
v -0.1 2 -0.5
v 0.1 2 -0.5
v 0.5 2 -0.5
v 0.6 2 -0.5
v -0.6 2 -0.6
v -0.5 2 -0.6
v -0.4 2 -0.6
v 0.4 2 -0.6
v 0.5 2 -0.6
v 0.6 2 -0.6
v -0.5 2 -0.7
v -0.4 2 -0.7
v -0.3 2 -0.7
v 0.3 2 -0.7
v 0.4 2 -0.7
v 0.5 2 -0.7
v -0.4 2 -0.8
v -0.3 2 -0.8
v -0.2 2 -0.8
v 0.2 2 -0.8
v 0.3 2 -0.8
v 0.4 2 -0.8
v -0.3 2 -0.9
v -0.2 2 -0.9
v -0.1 2 -0.9
v 0.1 2 -0.9
v 0.2 2 -0.9
v 0.3 2 -0.9
v -0.2 2 -1
v -0.1 2 -1
v 0.1 2 -1
v 0.2 2 -1
v -0.1 2 -1.1
v 0.1 2 -1.1

# faces
f 3/1/1 2/1/1 1/1/1
f 4/1/1 2/1/1 3/1/1
f 5/1/1 3/1/1 1/1/1
f 6/1/1 2/1/1 4/1/1
f 7/1/1 5/1/1 1/1/1
f 7/1/1 6/1/1 5/1/1
f 8/1/1 2/1/1 6/1/1
f 8/1/1 6/1/1 7/1/1
f 11/3/1 10/3/1 9/3/1
f 12/3/1 10/3/1 11/3/1
f 15/2/1 14/2/1 13/2/1
f 16/2/1 14/2/1 15/2/1
f 17/3/1 11/3/1 9/3/1
f 18/3/1 10/3/1 12/3/1
f 19/3/1 17/3/1 9/3/1
f 19/3/1 18/3/1 17/3/1
f 20/3/1 10/3/1 18/3/1
f 20/3/1 18/3/1 19/3/1
f 25/3/1 22/3/1 21/3/1
f 26/3/1 22/3/1 25/3/1
f 27/3/1 24/3/1 23/3/1
f 28/3/1 24/3/1 27/3/1
f 29/3/1 27/3/1 26/3/1
f 30/3/1 27/3/1 29/3/1
f 33/5/1 32/5/1 31/5/1
f 34/5/1 32/5/1 33/5/1
f 39/5/1 36/5/1 35/5/1
f 40/5/1 36/5/1 39/5/1
f 41/5/1 38/5/1 37/5/1
f 42/5/1 38/5/1 41/5/1
f 45/5/1 44/5/1 43/5/1
f 46/5/1 44/5/1 45/5/1
f 49/5/1 48/5/1 47/5/1
f 50/5/1 48/5/1 49/5/1
f 55/5/1 52/5/1 51/5/1
f 56/5/1 52/5/1 55/5/1
f 57/5/1 54/5/1 53/5/1
f 58/5/1 54/5/1 57/5/1
f 63/5/1 60/5/1 59/5/1
f 64/5/1 60/5/1 63/5/1
f 65/5/1 62/5/1 61/5/1
f 66/5/1 62/5/1 65/5/1
f 67/5/2 68/5/2 71/5/2
f 71/5/2 68/5/2 72/5/2
f 69/5/2 70/5/2 73/5/2
f 73/5/2 70/5/2 74/5/2
f 75/5/2 76/5/2 79/5/2
f 79/5/2 76/5/2 80/5/2
f 77/5/2 78/5/2 81/5/2
f 81/5/2 78/5/2 82/5/2
f 83/5/2 84/5/2 85/5/2
f 85/5/2 84/5/2 86/5/2
f 87/5/2 88/5/2 89/5/2
f 89/5/2 88/5/2 90/5/2
f 91/5/2 92/5/2 95/5/2
f 95/5/2 92/5/2 96/5/2
f 93/5/2 94/5/2 97/5/2
f 97/5/2 94/5/2 98/5/2
f 99/5/2 100/5/2 101/5/2
f 101/5/2 100/5/2 102/5/2
f 103/3/2 104/3/2 107/3/2
f 107/3/2 104/3/2 108/3/2
f 105/3/2 106/3/2 109/3/2
f 109/3/2 106/3/2 110/3/2
f 108/3/2 109/3/2 111/3/2
f 111/3/2 109/3/2 112/3/2
f 113/3/2 114/3/2 115/3/2
f 115/3/2 114/3/2 116/3/2
f 117/2/2 118/2/2 119/2/2
f 119/2/2 118/2/2 120/2/2
f 113/3/2 115/3/2 121/3/2
f 116/3/2 114/3/2 122/3/2
f 113/3/2 121/3/2 123/3/2
f 121/3/2 122/3/2 123/3/2
f 122/3/2 114/3/2 124/3/2
f 123/3/2 122/3/2 124/3/2
f 125/1/2 126/1/2 127/1/2
f 127/1/2 126/1/2 128/1/2
f 125/1/2 127/1/2 129/1/2
f 128/1/2 126/1/2 130/1/2
f 125/1/2 129/1/2 131/1/2
f 129/1/2 130/1/2 131/1/2
f 130/1/2 126/1/2 132/1/2
f 131/1/2 130/1/2 132/1/2
f 135/3/3 134/3/3 133/3/3
f 136/3/3 134/3/3 135/3/3
f 139/3/3 138/3/3 137/3/3
f 140/3/3 138/3/3 139/3/3
f 143/3/3 141/3/3 140/3/3
f 144/3/3 141/3/3 143/3/3
f 145/3/3 143/3/3 142/3/3
f 146/3/3 143/3/3 145/3/3
f 149/1/3 148/1/3 147/1/3
f 150/1/3 148/1/3 149/1/3
f 153/1/3 152/1/3 151/1/3
f 154/1/3 152/1/3 153/1/3
f 157/5/3 156/5/3 155/5/3
f 158/5/3 156/5/3 157/5/3
f 161/5/3 160/5/3 159/5/3
f 162/5/3 160/5/3 161/5/3
f 165/5/3 164/5/3 163/5/3
f 166/5/3 164/5/3 165/5/3
f 169/5/3 168/5/3 167/5/3
f 170/5/3 168/5/3 169/5/3
f 173/5/3 172/5/3 171/5/3
f 174/5/3 172/5/3 173/5/3
f 177/5/3 176/5/3 175/5/3
f 178/5/3 176/5/3 177/5/3
f 181/5/3 180/5/3 179/5/3
f 182/5/3 180/5/3 181/5/3
f 185/1/3 184/1/3 183/1/3
f 186/1/3 184/1/3 185/1/3
f 189/1/3 188/1/3 187/1/3
f 190/1/3 188/1/3 189/1/3
f 191/1/4 192/1/4 193/1/4
f 193/1/4 192/1/4 194/1/4
f 195/1/4 196/1/4 197/1/4
f 197/1/4 196/1/4 198/1/4
f 199/5/4 200/5/4 201/5/4
f 201/5/4 200/5/4 202/5/4
f 203/5/4 204/5/4 205/5/4
f 205/5/4 204/5/4 206/5/4
f 207/5/4 208/5/4 209/5/4
f 209/5/4 208/5/4 210/5/4
f 211/5/4 212/5/4 213/5/4
f 213/5/4 212/5/4 214/5/4
f 215/5/4 216/5/4 217/5/4
f 217/5/4 216/5/4 218/5/4
f 219/5/4 220/5/4 221/5/4
f 221/5/4 220/5/4 222/5/4
f 223/5/4 224/5/4 225/5/4
f 225/5/4 224/5/4 226/5/4
f 227/5/4 228/5/4 229/5/4
f 229/5/4 228/5/4 230/5/4
f 231/5/4 232/5/4 233/5/4
f 233/5/4 232/5/4 234/5/4
f 235/5/4 236/5/4 237/5/4
f 237/5/4 236/5/4 238/5/4
f 239/1/4 240/1/4 241/1/4
f 241/1/4 240/1/4 242/1/4
f 243/5/4 244/5/4 245/5/4
f 245/5/4 244/5/4 246/5/4
f 247/1/4 248/1/4 249/1/4
f 249/1/4 248/1/4 250/1/4
f 251/3/4 252/3/4 253/3/4
f 253/3/4 252/3/4 254/3/4
f 254/3/4 255/3/4 257/3/4
f 257/3/4 255/3/4 258/3/4
f 256/3/4 257/3/4 259/3/4
f 259/3/4 257/3/4 260/3/4
f 261/3/4 262/3/4 263/3/4
f 263/3/4 262/3/4 264/3/4
f 268/3/5 266/3/5 265/3/5
f 269/3/5 266/3/5 268/3/5
f 271/3/5 268/3/5 267/3/5
f 271/3/5 270/3/5 269/3/5
f 271/3/5 269/3/5 268/3/5
f 272/3/5 270/3/5 271/3/5
f 273/3/5 270/3/5 272/3/5
f 274/3/5 270/3/5 273/3/5
f 275/3/5 273/3/5 272/3/5
f 276/3/5 273/3/5 275/3/5
f 281/1/5 278/1/5 277/1/5
f 282/1/5 278/1/5 281/1/5
f 283/1/5 280/1/5 279/1/5
f 284/1/5 280/1/5 283/1/5
f 289/1/5 286/1/5 285/1/5
f 290/1/5 286/1/5 289/1/5
f 291/1/5 288/1/5 287/1/5
f 292/1/5 288/1/5 291/1/5
f 293/1/6 294/1/6 297/1/6
f 297/1/6 294/1/6 298/1/6
f 295/1/6 296/1/6 299/1/6
f 299/1/6 296/1/6 300/1/6
f 301/1/6 302/1/6 305/1/6
f 305/1/6 302/1/6 306/1/6
f 303/1/6 304/1/6 307/1/6
f 307/1/6 304/1/6 308/1/6
f 309/3/6 310/3/6 312/3/6
f 312/3/6 310/3/6 313/3/6
f 311/3/6 312/3/6 315/3/6
f 315/3/6 312/3/6 316/3/6
f 313/3/6 314/3/6 317/3/6
f 317/3/6 314/3/6 318/3/6
f 316/3/6 317/3/6 319/3/6
f 319/3/6 317/3/6 320/3/6
f 321/3/6 322/3/6 323/3/6
f 323/3/6 322/3/6 324/3/6
f 321/3/6 323/3/6 325/3/6
f 325/3/6 323/3/6 326/3/6
f 324/3/6 322/3/6 327/3/6
f 327/3/6 322/3/6 328/3/6
f 321/3/6 325/3/6 329/3/6
f 329/3/6 325/3/6 330/3/6
f 328/3/6 322/3/6 331/3/6
f 331/3/6 322/3/6 332/3/6
f 321/3/6 329/3/6 333/3/6
f 333/3/6 329/3/6 334/3/6
f 332/3/6 322/3/6 335/3/6
f 335/3/6 322/3/6 336/3/6
f 321/3/6 333/3/6 337/3/6
f 336/3/6 322/3/6 340/3/6
f 337/3/6 338/3/6 341/3/6
f 339/3/6 340/3/6 344/3/6
f 341/3/6 342/3/6 345/3/6
f 343/3/6 344/3/6 348/3/6
f 345/3/6 346/3/6 349/3/6
f 347/3/6 348/3/6 352/3/6
f 349/3/6 350/3/6 353/3/6
f 351/3/6 352/3/6 356/3/6
f 353/3/6 354/3/6 357/3/6
f 355/3/6 356/3/6 358/3/6
f 353/3/6 357/3/6 359/3/6
f 357/3/6 358/3/6 359/3/6
f 321/3/6 337/3/6 359/3/6
f 337/3/6 341/3/6 359/3/6
f 341/3/6 345/3/6 359/3/6
f 345/3/6 349/3/6 359/3/6
f 349/3/6 353/3/6 359/3/6
f 358/3/6 356/3/6 360/3/6
f 359/3/6 358/3/6 360/3/6
f 340/3/6 322/3/6 360/3/6
f 356/3/6 352/3/6 360/3/6
f 352/3/6 348/3/6 360/3/6
f 348/3/6 344/3/6 360/3/6
f 344/3/6 340/3/6 360/3/6
f 361/5/6 362/5/6 364/5/6
f 364/5/6 362/5/6 365/5/6
f 363/5/6 364/5/6 368/5/6
f 365/5/6 366/5/6 369/5/6
f 367/5/6 368/5/6 372/5/6
f 364/4/6 365/4/6 373/4/6
f 368/5/6 364/5/6 373/5/6
f 372/5/6 368/5/6 373/5/6
f 369/5/6 370/5/6 374/5/6
f 373/4/6 365/4/6 374/4/6
f 365/5/6 369/5/6 374/5/6
f 374/5/6 370/5/6 375/5/6
f 371/5/6 372/5/6 377/5/6
f 372/4/6 373/4/6 378/4/6
f 377/5/6 372/5/6 378/5/6
f 373/4/6 374/4/6 378/4/6
f 374/4/6 375/4/6 378/4/6
f 378/4/6 375/4/6 379/4/6
f 379/4/6 375/4/6 380/4/6
f 375/5/6 376/5/6 381/5/6
f 380/4/6 375/4/6 381/4/6
f 381/5/6 376/5/6 382/5/6
f 378/5/6 379/5/6 383/5/6
f 379/4/6 380/4/6 384/4/6
f 383/5/6 379/5/6 384/5/6
f 384/4/6 380/4/6 385/4/6
f 385/4/6 380/4/6 386/4/6
f 380/5/6 381/5/6 387/5/6
f 386/4/6 380/4/6 387/4/6
f 387/5/6 381/5/6 388/5/6
f 384/5/6 385/5/6 389/5/6
f 385/4/6 386/4/6 390/4/6
f 389/5/6 385/5/6 390/5/6
f 390/4/6 386/4/6 391/4/6
f 391/4/6 386/4/6 392/4/6
f 386/5/6 387/5/6 393/5/6
f 392/4/6 386/4/6 393/4/6
f 393/5/6 387/5/6 394/5/6
f 390/5/6 391/5/6 395/5/6
f 391/4/6 392/4/6 396/4/6
f 395/5/6 391/5/6 396/5/6
f 396/4/6 392/4/6 397/4/6
f 397/4/6 392/4/6 398/4/6
f 392/5/6 393/5/6 399/5/6
f 398/4/6 392/4/6 399/4/6
f 399/5/6 393/5/6 400/5/6
f 396/5/6 397/5/6 401/5/6
f 397/4/6 398/4/6 402/4/6
f 401/5/6 397/5/6 402/5/6
f 398/5/6 399/5/6 403/5/6
f 402/4/6 398/4/6 403/4/6
f 403/5/6 399/5/6 404/5/6
f 402/5/6 403/5/6 405/5/6
f 405/5/6 403/5/6 406/5/6
