# MagicaVoxel @ Ephtracy

# group
o Coffre

# material
mtllib CoffreCed-3-Coffre.mtl
usemtl palette

# normals
vn -1 0 0
vn 1 0 0
vn 0 0 1
vn 0 0 -1
vn 0 -1 0
vn 0 1 0

# texcoords
vt 0.427734 0.5
vt 0.716797 0.5
vt 0.970703 0.5
vt 0.978516 0.5
vt 0.986328 0.5
vt 0.994141 0.5

# verts
v -1 0.5 0.3
v -1 0.5 -0.3
v -1 0.6 0.2
v -1 0.6 -0.2
v -1 1 0.2
v -1 1 -0.2
v -1 1.1 0.3
v -1 1.1 -0.3
v -0.9 0 1.4
v -0.9 0 -1.4
v -0.9 0.4 0.4
v -0.9 0.4 -0.4
v -0.9 0.5 0.3
v -0.9 0.5 -0.3
v -0.9 0.6 1.4
v -0.9 0.6 0.4
v -0.9 0.6 -0.4
v -0.9 0.6 -1.4
v -0.9 0.7 1.4
v -0.9 0.7 0.3
v -0.9 0.7 -0.3
v -0.9 0.7 -1.4
v -0.9 0.9 1.4
v -0.9 0.9 0.3
v -0.9 0.9 -0.3
v -0.9 0.9 -1.4
v -0.9 1 1.4
v -0.9 1 0.4
v -0.9 1 -0.4
v -0.9 1 -1.4
v -0.9 1.1 0.3
v -0.9 1.1 -0.3
v -0.9 1.2 0.4
v -0.9 1.2 -0.4
v -0.9 1.6 1.4
v -0.9 1.6 -1.4
v -0.9 1.7 1.5
v -0.9 1.7 -1.5
v -0.9 1.8 1.4
v -0.9 1.8 -1.4
v -0.9 2 1.4
v -0.9 2 -1.4
v -0.9 2.1 1.5
v -0.9 2.1 -1.5
v -0.8 0 1.5
v -0.8 0 1.4
v -0.8 0 -1.4
v -0.8 0 -1.5
v -0.8 0.6 1.5
v -0.8 0.6 1.4
v -0.8 0.6 0.2
v -0.8 0.6 -0.2
v -0.8 0.6 -1.4
v -0.8 0.6 -1.5
v -0.8 0.7 1.5
v -0.8 0.7 1.4
v -0.8 0.7 -1.4
v -0.8 0.7 -1.5
v -0.8 0.9 1.5
v -0.8 0.9 1.4
v -0.8 0.9 -1.4
v -0.8 0.9 -1.5
v -0.8 1 1.5
v -0.8 1 1.4
v -0.8 1 0.2
v -0.8 1 -0.2
v -0.8 1 -1.4
v -0.8 1 -1.5
v -0.8 1.6 1.5
v -0.8 1.6 1.4
v -0.8 1.6 -1.4
v -0.8 1.6 -1.5
v -0.8 1.7 1.4
v -0.8 1.7 -1.4
v -0.8 2.1 1.4
v -0.8 2.1 -1.4
v -0.8 2.2 1.4
v -0.8 2.2 -1.4
v -0.3 0.5 1.6
v -0.3 0.5 1.5
v -0.3 0.5 -1.5
v -0.3 0.5 -1.6
v -0.3 0.7 1.5
v -0.3 0.7 -1.5
v -0.3 0.9 1.5
v -0.3 0.9 -1.5
v -0.3 1.1 1.6
v -0.3 1.1 1.5
v -0.3 1.1 -1.5
v -0.3 1.1 -1.6
v 0.2 0.6 1.6
v 0.2 0.6 1.4
v 0.2 0.6 -1.4
v 0.2 0.6 -1.6
v 0.2 1 1.6
v 0.2 1 1.4
v 0.2 1 -1.4
v 0.2 1 -1.6
v -0.2 0.6 1.6
v -0.2 0.6 1.4
v -0.2 0.6 -1.4
v -0.2 0.6 -1.6
v -0.2 1 1.6
v -0.2 1 1.4
v -0.2 1 -1.4
v -0.2 1 -1.6
v 0.3 0.5 1.6
v 0.3 0.5 1.5
v 0.3 0.5 -1.5
v 0.3 0.5 -1.6
v 0.3 0.7 1.5
v 0.3 0.7 -1.5
v 0.3 0.9 1.5
v 0.3 0.9 -1.5
v 0.3 1.1 1.6
v 0.3 1.1 1.5
v 0.3 1.1 -1.5
v 0.3 1.1 -1.6
v 0.8 0 1.5
v 0.8 0 1.4
v 0.8 0 -1.4
v 0.8 0 -1.5
v 0.8 0.6 1.5
v 0.8 0.6 1.4
v 0.8 0.6 -1.4
v 0.8 0.6 -1.5
v 0.8 0.7 1.5
v 0.8 0.7 1.4
v 0.8 0.7 -1.4
v 0.8 0.7 -1.5
v 0.8 0.9 1.5
v 0.8 0.9 1.4
v 0.8 0.9 -1.4
v 0.8 0.9 -1.5
v 0.8 1 1.5
v 0.8 1 1.4
v 0.8 1 -1.4
v 0.8 1 -1.5
v 0.8 1.6 1.5
v 0.8 1.6 1.4
v 0.8 1.6 -1.4
v 0.8 1.6 -1.5
v 0.8 1.7 1.4
v 0.8 1.7 -1.4
v 0.8 2.1 1.4
v 0.8 2.1 -1.4
v 0.8 2.2 1.4
v 0.8 2.2 -1.4
v 0.9 0 1.4
v 0.9 0 -1.4
v 0.9 0.6 1.4
v 0.9 0.6 -1.4
v 0.9 0.7 1.4
v 0.9 0.7 -1.4
v 0.9 0.9 1.4
v 0.9 0.9 -1.4
v 0.9 1 1.4
v 0.9 1 -1.4
v 0.9 1.6 1.4
v 0.9 1.6 -1.4
v 0.9 1.7 1.5
v 0.9 1.7 -1.5
v 0.9 1.8 1.4
v 0.9 1.8 0.3
v 0.9 1.8 0.2
v 0.9 1.8 -0.2
v 0.9 1.8 -0.3
v 0.9 1.8 -1.4
v 0.9 1.9 0.2
v 0.9 1.9 -0.2
v 0.9 2 1.4
v 0.9 2 0.3
v 0.9 2 -0.3
v 0.9 2 -1.4
v 0.9 2.1 1.5
v 0.9 2.1 -1.5
v 1 1.8 0.3
v 1 1.8 0.2
v 1 1.8 -0.2
v 1 1.8 -0.3
v 1 1.9 0.3
v 1 1.9 0.2
v 1 1.9 -0.2
v 1 1.9 -0.3
v 1.1 1.9 0.3
v 1.1 1.9 -0.3
v 1.1 2 0.3
v 1.1 2 -0.3
v -0.3 0.5 1.6
v -0.3 1.1 1.6
v -0.2 0.6 1.6
v -0.2 1 1.6
v 0.2 0.6 1.6
v 0.2 1 1.6
v 0.3 0.5 1.6
v 0.3 1.1 1.6
v -0.9 1.7 1.5
v -0.9 2.1 1.5
v -0.8 0 1.5
v -0.8 0.6 1.5
v -0.8 0.7 1.5
v -0.8 0.9 1.5
v -0.8 1 1.5
v -0.8 1.6 1.5
v -0.8 1.8 1.5
v -0.8 2 1.5
v -0.4 0.4 1.5
v -0.4 0.6 1.5
v -0.4 1 1.5
v -0.4 1.2 1.5
v -0.3 0.5 1.5
v -0.3 0.7 1.5
v -0.3 0.9 1.5
v -0.3 1.1 1.5
v 0.3 0.5 1.5
v 0.3 0.7 1.5
v 0.3 0.9 1.5
v 0.3 1.1 1.5
v 0.4 0.4 1.5
v 0.4 0.6 1.5
v 0.4 1 1.5
v 0.4 1.2 1.5
v 0.8 0 1.5
v 0.8 0.6 1.5
v 0.8 0.7 1.5
v 0.8 0.9 1.5
v 0.8 1 1.5
v 0.8 1.6 1.5
v 0.8 1.8 1.5
v 0.8 2 1.5
v 0.9 1.7 1.5
v 0.9 2.1 1.5
v -0.9 0 1.4
v -0.9 0.6 1.4
v -0.9 0.7 1.4
v -0.9 0.9 1.4
v -0.9 1 1.4
v -0.9 1.6 1.4
v -0.8 0 1.4
v -0.8 0.6 1.4
v -0.8 0.7 1.4
v -0.8 0.9 1.4
v -0.8 1 1.4
v -0.8 1.6 1.4
v -0.8 1.7 1.4
v -0.8 2.1 1.4
v -0.8 2.2 1.4
v -0.2 0.6 1.4
v -0.2 1 1.4
v 0.2 0.6 1.4
v 0.2 1 1.4
v 0.8 0 1.4
v 0.8 0.6 1.4
v 0.8 0.7 1.4
v 0.8 0.9 1.4
v 0.8 1 1.4
v 0.8 1.6 1.4
v 0.8 1.7 1.4
v 0.8 2.1 1.4
v 0.8 2.2 1.4
v 0.9 0 1.4
v 0.9 0.6 1.4
v 0.9 0.7 1.4
v 0.9 0.9 1.4
v 0.9 1 1.4
v 0.9 1.6 1.4
v -1 0.5 0.3
v -1 1.1 0.3
v -0.9 0.5 0.3
v -0.9 0.7 0.3
v -0.9 0.9 0.3
v -0.9 1.1 0.3
v 0.9 1.8 0.3
v 0.9 2 0.3
v 1 1.8 0.3
v 1 1.9 0.3
v 1.1 1.9 0.3
v 1.1 2 0.3
v -1 0.6 -0.2
v -1 1 -0.2
v -0.8 0.6 -0.2
v -0.8 1 -0.2
v 0.9 1.8 -0.2
v 0.9 1.9 -0.2
v 1 1.8 -0.2
v 1 1.9 -0.2
v -1 0.6 0.2
v -1 1 0.2
v -0.8 0.6 0.2
v -0.8 1 0.2
v 0.9 1.8 0.2
v 0.9 1.9 0.2
v 1 1.8 0.2
v 1 1.9 0.2
v -1 0.5 -0.3
v -1 1.1 -0.3
v -0.9 0.5 -0.3
v -0.9 0.7 -0.3
v -0.9 0.9 -0.3
v -0.9 1.1 -0.3
v 0.9 1.8 -0.3
v 0.9 2 -0.3
v 1 1.8 -0.3
v 1 1.9 -0.3
v 1.1 1.9 -0.3
v 1.1 2 -0.3
v -0.9 0 -1.4
v -0.9 0.6 -1.4
v -0.9 0.7 -1.4
v -0.9 0.9 -1.4
v -0.9 1 -1.4
v -0.9 1.6 -1.4
v -0.8 0 -1.4
v -0.8 0.6 -1.4
v -0.8 0.7 -1.4
v -0.8 0.9 -1.4
v -0.8 1 -1.4
v -0.8 1.6 -1.4
v -0.8 1.7 -1.4
v -0.8 2.1 -1.4
v -0.8 2.2 -1.4
v -0.2 0.6 -1.4
v -0.2 1 -1.4
v 0.2 0.6 -1.4
v 0.2 1 -1.4
v 0.8 0 -1.4
v 0.8 0.6 -1.4
v 0.8 0.7 -1.4
v 0.8 0.9 -1.4
v 0.8 1 -1.4
v 0.8 1.6 -1.4
v 0.8 1.7 -1.4
v 0.8 2.1 -1.4
v 0.8 2.2 -1.4
v 0.9 0 -1.4
v 0.9 0.6 -1.4
v 0.9 0.7 -1.4
v 0.9 0.9 -1.4
v 0.9 1 -1.4
v 0.9 1.6 -1.4
v -0.9 1.7 -1.5
v -0.9 2.1 -1.5
v -0.8 0 -1.5
v -0.8 0.6 -1.5
v -0.8 0.7 -1.5
v -0.8 0.9 -1.5
v -0.8 1 -1.5
v -0.8 1.6 -1.5
v -0.8 1.8 -1.5
v -0.8 2 -1.5
v -0.4 0.4 -1.5
v -0.4 0.6 -1.5
v -0.4 1 -1.5
v -0.4 1.2 -1.5
v -0.3 0.5 -1.5
v -0.3 0.7 -1.5
v -0.3 0.9 -1.5
v -0.3 1.1 -1.5
v 0.3 0.5 -1.5
v 0.3 0.7 -1.5
v 0.3 0.9 -1.5
v 0.3 1.1 -1.5
v 0.4 0.4 -1.5
v 0.4 0.6 -1.5
v 0.4 1 -1.5
v 0.4 1.2 -1.5
v 0.8 0 -1.5
v 0.8 0.6 -1.5
v 0.8 0.7 -1.5
v 0.8 0.9 -1.5
v 0.8 1 -1.5
v 0.8 1.6 -1.5
v 0.8 1.8 -1.5
v 0.8 2 -1.5
v 0.9 1.7 -1.5
v 0.9 2.1 -1.5
v -0.3 0.5 -1.6
v -0.3 1.1 -1.6
v -0.2 0.6 -1.6
v -0.2 1 -1.6
v 0.2 0.6 -1.6
v 0.2 1 -1.6
v 0.3 0.5 -1.6
v 0.3 1.1 -1.6
v -0.8 0 1.5
v 0.8 0 1.5
v -0.9 0 1.4
v -0.8 0 1.4
v 0.8 0 1.4
v 0.9 0 1.4
v -0.9 0 -1.4
v -0.8 0 -1.4
v 0.8 0 -1.4
v 0.9 0 -1.4
v -0.8 0 -1.5
v 0.8 0 -1.5
v -0.3 0.5 1.6
v 0.3 0.5 1.6
v -0.3 0.5 1.5
v 0.3 0.5 1.5
v -1 0.5 0.3
v -0.9 0.5 0.3
v -1 0.5 -0.3
v -0.9 0.5 -0.3
v -0.3 0.5 -1.5
v 0.3 0.5 -1.5
v -0.3 0.5 -1.6
v 0.3 0.5 -1.6
v -0.2 1 1.6
v 0.2 1 1.6
v -0.2 1 1.4
v 0.2 1 1.4
v -1 1 0.2
v -0.8 1 0.2
v -1 1 -0.2
v -0.8 1 -0.2
v -0.2 1 -1.4
v 0.2 1 -1.4
v -0.2 1 -1.6
v 0.2 1 -1.6
v -0.9 1.7 1.5
v 0.9 1.7 1.5
v -0.8 1.7 1.4
v 0.8 1.7 1.4
v -0.8 1.7 -1.4
v 0.8 1.7 -1.4
v -0.9 1.7 -1.5
v 0.9 1.7 -1.5
v 0.9 1.8 0.3
v 1 1.8 0.3
v 0.9 1.8 0.2
v 1 1.8 0.2
v 0.9 1.8 -0.2
v 1 1.8 -0.2
v 0.9 1.8 -0.3
v 1 1.8 -0.3
v 1 1.9 0.3
v 1.1 1.9 0.3
v 0.9 1.9 0.2
v 1 1.9 0.2
v 0.9 1.9 -0.2
v 1 1.9 -0.2
v 1 1.9 -0.3
v 1.1 1.9 -0.3
v -0.2 0.6 1.6
v 0.2 0.6 1.6
v -0.2 0.6 1.4
v 0.2 0.6 1.4
v -1 0.6 0.2
v -0.8 0.6 0.2
v -1 0.6 -0.2
v -0.8 0.6 -0.2
v -0.2 0.6 -1.4
v 0.2 0.6 -1.4
v -0.2 0.6 -1.6
v 0.2 0.6 -1.6
v -0.3 1.1 1.6
v 0.3 1.1 1.6
v -0.3 1.1 1.5
v 0.3 1.1 1.5
v -1 1.1 0.3
v -0.9 1.1 0.3
v -1 1.1 -0.3
v -0.9 1.1 -0.3
v -0.3 1.1 -1.5
v 0.3 1.1 -1.5
v -0.3 1.1 -1.6
v 0.3 1.1 -1.6
v -0.8 1.6 1.5
v 0.8 1.6 1.5
v -0.9 1.6 1.4
v -0.8 1.6 1.4
v 0.8 1.6 1.4
v 0.9 1.6 1.4
v -0.9 1.6 -1.4
v -0.8 1.6 -1.4
v 0.8 1.6 -1.4
v 0.9 1.6 -1.4
v -0.8 1.6 -1.5
v 0.8 1.6 -1.5
v 0.9 2 0.3
v 1.1 2 0.3
v 0.9 2 -0.3
v 1.1 2 -0.3
v -0.9 2.1 1.5
v 0.9 2.1 1.5
v -0.8 2.1 1.4
v 0.8 2.1 1.4
v -0.8 2.1 -1.4
v 0.8 2.1 -1.4
v -0.9 2.1 -1.5
v 0.9 2.1 -1.5
v -0.8 2.2 1.4
v 0.8 2.2 1.4
v -0.8 2.2 -1.4
v 0.8 2.2 -1.4

# faces
f 3/1/1 2/1/1 1/1/1
f 4/1/1 2/1/1 3/1/1
f 5/1/1 3/1/1 1/1/1
f 6/1/1 2/1/1 4/1/1
f 7/1/1 5/1/1 1/1/1
f 7/1/1 6/1/1 5/1/1
f 8/1/1 2/1/1 6/1/1
f 8/1/1 6/1/1 7/1/1
f 11/3/1 10/3/1 9/3/1
f 12/3/1 10/3/1 11/3/1
f 13/5/1 12/5/1 11/5/1
f 14/5/1 12/5/1 13/5/1
f 15/3/1 11/3/1 9/3/1
f 16/5/1 13/5/1 11/5/1
f 16/3/1 11/3/1 15/3/1
f 17/5/1 12/5/1 14/5/1
f 17/3/1 10/3/1 12/3/1
f 18/3/1 10/3/1 17/3/1
f 19/5/1 16/5/1 15/5/1
f 20/5/1 13/5/1 16/5/1
f 20/5/1 16/5/1 19/5/1
f 21/5/1 17/5/1 14/5/1
f 21/5/1 18/5/1 17/5/1
f 22/5/1 18/5/1 21/5/1
f 23/1/1 20/1/1 19/1/1
f 24/1/1 20/1/1 23/1/1
f 25/1/1 22/1/1 21/1/1
f 26/1/1 22/1/1 25/1/1
f 27/5/1 24/5/1 23/5/1
f 28/5/1 24/5/1 27/5/1
f 29/5/1 26/5/1 25/5/1
f 30/5/1 26/5/1 29/5/1
f 31/5/1 24/5/1 28/5/1
f 32/5/1 29/5/1 25/5/1
f 33/3/1 28/3/1 27/3/1
f 33/5/1 32/5/1 31/5/1
f 33/5/1 31/5/1 28/5/1
f 34/5/1 29/5/1 32/5/1
f 34/5/1 32/5/1 33/5/1
f 34/3/1 30/3/1 29/3/1
f 35/3/1 33/3/1 27/3/1
f 35/3/1 34/3/1 33/3/1
f 36/3/1 30/3/1 34/3/1
f 36/3/1 34/3/1 35/3/1
f 39/4/1 38/4/1 37/4/1
f 40/4/1 38/4/1 39/4/1
f 41/4/1 39/4/1 37/4/1
f 41/3/1 40/3/1 39/3/1
f 42/4/1 38/4/1 40/4/1
f 42/3/1 40/3/1 41/3/1
f 43/4/1 41/4/1 37/4/1
f 43/4/1 42/4/1 41/4/1
f 44/4/1 38/4/1 42/4/1
f 44/4/1 42/4/1 43/4/1
f 49/3/1 46/3/1 45/3/1
f 50/3/1 46/3/1 49/3/1
f 53/3/1 48/3/1 47/3/1
f 54/3/1 48/3/1 53/3/1
f 55/5/1 50/5/1 49/5/1
f 56/5/1 50/5/1 55/5/1
f 57/5/1 54/5/1 53/5/1
f 58/5/1 54/5/1 57/5/1
f 59/1/1 56/1/1 55/1/1
f 60/1/1 56/1/1 59/1/1
f 61/1/1 58/1/1 57/1/1
f 62/1/1 58/1/1 61/1/1
f 63/5/1 60/5/1 59/5/1
f 64/5/1 60/5/1 63/5/1
f 65/6/1 52/6/1 51/6/1
f 66/6/1 52/6/1 65/6/1
f 67/5/1 62/5/1 61/5/1
f 68/5/1 62/5/1 67/5/1
f 69/3/1 64/3/1 63/3/1
f 70/3/1 64/3/1 69/3/1
f 71/3/1 68/3/1 67/3/1
f 72/3/1 68/3/1 71/3/1
f 73/2/1 71/2/1 70/2/1
f 74/2/1 71/2/1 73/2/1
f 77/3/1 76/3/1 75/3/1
f 78/3/1 76/3/1 77/3/1
f 83/1/1 80/1/1 79/1/1
f 84/1/1 82/1/1 81/1/1
f 85/1/1 83/1/1 79/1/1
f 86/1/1 82/1/1 84/1/1
f 87/1/1 85/1/1 79/1/1
f 88/1/1 85/1/1 87/1/1
f 89/1/1 82/1/1 86/1/1
f 90/1/1 82/1/1 89/1/1
f 95/1/1 92/1/1 91/1/1
f 96/1/1 92/1/1 95/1/1
f 97/1/1 94/1/1 93/1/1
f 98/1/1 94/1/1 97/1/1
f 99/1/2 100/1/2 103/1/2
f 103/1/2 100/1/2 104/1/2
f 101/1/2 102/1/2 105/1/2
f 105/1/2 102/1/2 106/1/2
f 107/1/2 108/1/2 111/1/2
f 109/1/2 110/1/2 112/1/2
f 107/1/2 111/1/2 113/1/2
f 112/1/2 110/1/2 114/1/2
f 107/1/2 113/1/2 115/1/2
f 115/1/2 113/1/2 116/1/2
f 114/1/2 110/1/2 117/1/2
f 117/1/2 110/1/2 118/1/2
f 119/3/2 120/3/2 123/3/2
f 123/3/2 120/3/2 124/3/2
f 121/3/2 122/3/2 125/3/2
f 125/3/2 122/3/2 126/3/2
f 123/5/2 124/5/2 127/5/2
f 127/5/2 124/5/2 128/5/2
f 125/5/2 126/5/2 129/5/2
f 129/5/2 126/5/2 130/5/2
f 127/1/2 128/1/2 131/1/2
f 131/1/2 128/1/2 132/1/2
f 129/1/2 130/1/2 133/1/2
f 133/1/2 130/1/2 134/1/2
f 131/5/2 132/5/2 135/5/2
f 135/5/2 132/5/2 136/5/2
f 133/5/2 134/5/2 137/5/2
f 137/5/2 134/5/2 138/5/2
f 135/3/2 136/3/2 139/3/2
f 139/3/2 136/3/2 140/3/2
f 137/3/2 138/3/2 141/3/2
f 141/3/2 138/3/2 142/3/2
f 140/2/2 141/2/2 143/2/2
f 143/2/2 141/2/2 144/2/2
f 145/3/2 146/3/2 147/3/2
f 147/3/2 146/3/2 148/3/2
f 149/3/2 150/3/2 151/3/2
f 151/3/2 150/3/2 152/3/2
f 151/5/2 152/5/2 153/5/2
f 153/5/2 152/5/2 154/5/2
f 153/1/2 154/1/2 155/1/2
f 155/1/2 154/1/2 156/1/2
f 155/5/2 156/5/2 157/5/2
f 157/5/2 156/5/2 158/5/2
f 157/3/2 158/3/2 159/3/2
f 159/3/2 158/3/2 160/3/2
f 161/4/2 162/4/2 163/4/2
f 163/4/2 162/4/2 164/4/2
f 164/4/2 162/4/2 165/4/2
f 165/4/2 162/4/2 166/4/2
f 166/4/2 162/4/2 167/4/2
f 167/4/2 162/4/2 168/4/2
f 165/3/2 166/3/2 169/3/2
f 169/3/2 166/3/2 170/3/2
f 161/4/2 163/4/2 171/4/2
f 163/3/2 164/3/2 171/3/2
f 171/3/2 164/3/2 172/3/2
f 167/3/2 168/3/2 173/3/2
f 168/4/2 162/4/2 174/4/2
f 173/3/2 168/3/2 174/3/2
f 171/4/2 172/4/2 175/4/2
f 172/4/2 173/4/2 175/4/2
f 173/4/2 174/4/2 175/4/2
f 161/4/2 171/4/2 175/4/2
f 174/4/2 162/4/2 176/4/2
f 175/4/2 174/4/2 176/4/2
f 177/1/2 178/1/2 181/1/2
f 181/1/2 178/1/2 182/1/2
f 179/1/2 180/1/2 183/1/2
f 183/1/2 180/1/2 184/1/2
f 185/1/2 186/1/2 187/1/2
f 187/1/2 186/1/2 188/1/2
f 191/1/3 190/1/3 189/1/3
f 192/1/3 190/1/3 191/1/3
f 193/1/3 191/1/3 189/1/3
f 194/1/3 190/1/3 192/1/3
f 195/1/3 193/1/3 189/1/3
f 195/1/3 194/1/3 193/1/3
f 196/1/3 190/1/3 194/1/3
f 196/1/3 194/1/3 195/1/3
f 205/4/3 198/4/3 197/4/3
f 206/4/3 198/4/3 205/4/3
f 207/3/3 200/3/3 199/3/3
f 208/5/3 201/5/3 200/5/3
f 208/3/3 200/3/3 207/3/3
f 209/3/3 204/3/3 203/3/3
f 209/5/3 203/5/3 202/5/3
f 210/3/3 204/3/3 209/3/3
f 211/5/3 208/5/3 207/5/3
f 212/5/3 201/5/3 208/5/3
f 212/5/3 208/5/3 211/5/3
f 212/1/3 202/1/3 201/1/3
f 213/5/3 210/5/3 209/5/3
f 213/1/3 202/1/3 212/1/3
f 213/5/3 209/5/3 202/5/3
f 214/5/3 210/5/3 213/5/3
f 215/5/3 211/5/3 207/5/3
f 218/5/3 210/5/3 214/5/3
f 219/3/3 207/3/3 199/3/3
f 219/5/3 215/5/3 207/5/3
f 219/5/3 216/5/3 215/5/3
f 220/5/3 216/5/3 219/5/3
f 221/5/3 218/5/3 217/5/3
f 222/3/3 204/3/3 210/3/3
f 222/5/3 218/5/3 221/5/3
f 222/5/3 210/5/3 218/5/3
f 223/3/3 220/3/3 219/3/3
f 223/3/3 219/3/3 199/3/3
f 224/5/3 216/5/3 220/5/3
f 224/3/3 220/3/3 223/3/3
f 225/1/3 217/1/3 216/1/3
f 225/5/3 216/5/3 224/5/3
f 226/5/3 221/5/3 217/5/3
f 226/1/3 217/1/3 225/1/3
f 227/3/3 222/3/3 221/3/3
f 227/5/3 221/5/3 226/5/3
f 228/3/3 204/3/3 222/3/3
f 228/3/3 222/3/3 227/3/3
f 229/3/3 206/3/3 205/3/3
f 229/4/3 205/4/3 197/4/3
f 230/4/3 198/4/3 206/4/3
f 230/3/3 206/3/3 229/3/3
f 231/4/3 229/4/3 197/4/3
f 231/4/3 230/4/3 229/4/3
f 232/4/3 198/4/3 230/4/3
f 232/4/3 230/4/3 231/4/3
f 239/3/3 234/3/3 233/3/3
f 240/5/3 235/5/3 234/5/3
f 240/3/3 234/3/3 239/3/3
f 241/1/3 236/1/3 235/1/3
f 241/5/3 235/5/3 240/5/3
f 242/5/3 237/5/3 236/5/3
f 242/1/3 236/1/3 241/1/3
f 243/3/3 238/3/3 237/3/3
f 243/5/3 237/5/3 242/5/3
f 244/3/3 238/3/3 243/3/3
f 250/6/3 249/6/3 248/6/3
f 251/6/3 249/6/3 250/6/3
f 257/2/3 245/2/3 244/2/3
f 258/2/3 245/2/3 257/2/3
f 259/3/3 247/3/3 246/3/3
f 260/3/3 247/3/3 259/3/3
f 261/3/3 253/3/3 252/3/3
f 262/5/3 254/5/3 253/5/3
f 262/3/3 253/3/3 261/3/3
f 263/1/3 255/1/3 254/1/3
f 263/5/3 254/5/3 262/5/3
f 264/5/3 256/5/3 255/5/3
f 264/1/3 255/1/3 263/1/3
f 265/3/3 257/3/3 256/3/3
f 265/5/3 256/5/3 264/5/3
f 266/3/3 257/3/3 265/3/3
f 269/1/3 268/1/3 267/1/3
f 270/1/3 268/1/3 269/1/3
f 271/1/3 268/1/3 270/1/3
f 272/1/3 268/1/3 271/1/3
f 275/1/3 274/1/3 273/1/3
f 276/1/3 274/1/3 275/1/3
f 277/1/3 274/1/3 276/1/3
f 278/1/3 274/1/3 277/1/3
f 281/1/3 280/1/3 279/1/3
f 282/1/3 280/1/3 281/1/3
f 285/1/3 284/1/3 283/1/3
f 286/1/3 284/1/3 285/1/3
f 287/1/4 288/1/4 289/1/4
f 289/1/4 288/1/4 290/1/4
f 291/1/4 292/1/4 293/1/4
f 293/1/4 292/1/4 294/1/4
f 295/1/4 296/1/4 297/1/4
f 297/1/4 296/1/4 298/1/4
f 298/1/4 296/1/4 299/1/4
f 299/1/4 296/1/4 300/1/4
f 301/1/4 302/1/4 303/1/4
f 303/1/4 302/1/4 304/1/4
f 304/1/4 302/1/4 305/1/4
f 305/1/4 302/1/4 306/1/4
f 307/3/4 308/3/4 313/3/4
f 308/5/4 309/5/4 314/5/4
f 313/3/4 308/3/4 314/3/4
f 309/1/4 310/1/4 315/1/4
f 314/5/4 309/5/4 315/5/4
f 310/5/4 311/5/4 316/5/4
f 315/1/4 310/1/4 316/1/4
f 311/3/4 312/3/4 317/3/4
f 316/5/4 311/5/4 317/5/4
f 317/3/4 312/3/4 318/3/4
f 322/6/4 323/6/4 324/6/4
f 324/6/4 323/6/4 325/6/4
f 318/2/4 319/2/4 331/2/4
f 331/2/4 319/2/4 332/2/4
f 320/3/4 321/3/4 333/3/4
f 333/3/4 321/3/4 334/3/4
f 326/3/4 327/3/4 335/3/4
f 327/5/4 328/5/4 336/5/4
f 335/3/4 327/3/4 336/3/4
f 328/1/4 329/1/4 337/1/4
f 336/5/4 328/5/4 337/5/4
f 329/5/4 330/5/4 338/5/4
f 337/1/4 329/1/4 338/1/4
f 330/3/4 331/3/4 339/3/4
f 338/5/4 330/5/4 339/5/4
f 339/3/4 331/3/4 340/3/4
f 341/4/4 342/4/4 349/4/4
f 349/4/4 342/4/4 350/4/4
f 343/3/4 344/3/4 351/3/4
f 344/5/4 345/5/4 352/5/4
f 351/3/4 344/3/4 352/3/4
f 347/3/4 348/3/4 353/3/4
f 346/5/4 347/5/4 353/5/4
f 353/3/4 348/3/4 354/3/4
f 351/5/4 352/5/4 355/5/4
f 352/5/4 345/5/4 356/5/4
f 355/5/4 352/5/4 356/5/4
f 345/1/4 346/1/4 356/1/4
f 353/5/4 354/5/4 357/5/4
f 356/1/4 346/1/4 357/1/4
f 346/5/4 353/5/4 357/5/4
f 357/5/4 354/5/4 358/5/4
f 351/5/4 355/5/4 359/5/4
f 358/5/4 354/5/4 362/5/4
f 343/3/4 351/3/4 363/3/4
f 351/5/4 359/5/4 363/5/4
f 359/5/4 360/5/4 363/5/4
f 363/5/4 360/5/4 364/5/4
f 361/5/4 362/5/4 365/5/4
f 354/3/4 348/3/4 366/3/4
f 365/5/4 362/5/4 366/5/4
f 362/5/4 354/5/4 366/5/4
f 363/3/4 364/3/4 367/3/4
f 343/3/4 363/3/4 367/3/4
f 364/5/4 360/5/4 368/5/4
f 367/3/4 364/3/4 368/3/4
f 360/1/4 361/1/4 369/1/4
f 368/5/4 360/5/4 369/5/4
f 361/5/4 365/5/4 370/5/4
f 369/1/4 361/1/4 370/1/4
f 365/3/4 366/3/4 371/3/4
f 370/5/4 365/5/4 371/5/4
f 366/3/4 348/3/4 372/3/4
f 371/3/4 366/3/4 372/3/4
f 349/3/4 350/3/4 373/3/4
f 341/4/4 349/4/4 373/4/4
f 350/4/4 342/4/4 374/4/4
f 373/3/4 350/3/4 374/3/4
f 341/4/4 373/4/4 375/4/4
f 373/4/4 374/4/4 375/4/4
f 374/4/4 342/4/4 376/4/4
f 375/4/4 374/4/4 376/4/4
f 377/1/4 378/1/4 379/1/4
f 379/1/4 378/1/4 380/1/4
f 377/1/4 379/1/4 381/1/4
f 380/1/4 378/1/4 382/1/4
f 377/1/4 381/1/4 383/1/4
f 381/1/4 382/1/4 383/1/4
f 382/1/4 378/1/4 384/1/4
f 383/1/4 382/1/4 384/1/4
f 388/3/5 386/3/5 385/3/5
f 389/3/5 386/3/5 388/3/5
f 391/3/5 388/3/5 387/3/5
f 391/3/5 390/3/5 389/3/5
f 391/3/5 389/3/5 388/3/5
f 392/3/5 390/3/5 391/3/5
f 393/3/5 390/3/5 392/3/5
f 394/3/5 390/3/5 393/3/5
f 395/3/5 393/3/5 392/3/5
f 396/3/5 393/3/5 395/3/5
f 399/1/5 398/1/5 397/1/5
f 400/1/5 398/1/5 399/1/5
f 403/1/5 402/1/5 401/1/5
f 404/1/5 402/1/5 403/1/5
f 407/1/5 406/1/5 405/1/5
f 408/1/5 406/1/5 407/1/5
f 411/1/5 410/1/5 409/1/5
f 412/1/5 410/1/5 411/1/5
f 415/1/5 414/1/5 413/1/5
f 416/1/5 414/1/5 415/1/5
f 419/1/5 418/1/5 417/1/5
f 420/1/5 418/1/5 419/1/5
f 423/4/5 422/4/5 421/4/5
f 424/4/5 422/4/5 423/4/5
f 425/4/5 423/4/5 421/4/5
f 426/4/5 422/4/5 424/4/5
f 427/4/5 425/4/5 421/4/5
f 427/4/5 426/4/5 425/4/5
f 428/4/5 422/4/5 426/4/5
f 428/4/5 426/4/5 427/4/5
f 431/1/5 430/1/5 429/1/5
f 432/1/5 430/1/5 431/1/5
f 435/1/5 434/1/5 433/1/5
f 436/1/5 434/1/5 435/1/5
f 440/1/5 438/1/5 437/1/5
f 441/1/5 440/1/5 439/1/5
f 442/1/5 438/1/5 440/1/5
f 442/1/5 440/1/5 441/1/5
f 443/1/5 438/1/5 442/1/5
f 444/1/5 438/1/5 443/1/5
f 445/1/6 446/1/6 447/1/6
f 447/1/6 446/1/6 448/1/6
f 449/1/6 450/1/6 451/1/6
f 451/1/6 450/1/6 452/1/6
f 453/1/6 454/1/6 455/1/6
f 455/1/6 454/1/6 456/1/6
f 457/1/6 458/1/6 459/1/6
f 459/1/6 458/1/6 460/1/6
f 461/1/6 462/1/6 463/1/6
f 463/1/6 462/1/6 464/1/6
f 465/1/6 466/1/6 467/1/6
f 467/1/6 466/1/6 468/1/6
f 469/3/6 470/3/6 472/3/6
f 472/3/6 470/3/6 473/3/6
f 471/3/6 472/3/6 475/3/6
f 475/3/6 472/3/6 476/3/6
f 473/3/6 474/3/6 477/3/6
f 477/3/6 474/3/6 478/3/6
f 476/3/6 477/3/6 479/3/6
f 479/3/6 477/3/6 480/3/6
f 481/1/6 482/1/6 483/1/6
f 483/1/6 482/1/6 484/1/6
f 485/4/6 486/4/6 487/4/6
f 487/4/6 486/4/6 488/4/6
f 485/4/6 487/4/6 489/4/6
f 488/4/6 486/4/6 490/4/6
f 485/4/6 489/4/6 491/4/6
f 489/4/6 490/4/6 491/4/6
f 490/4/6 486/4/6 492/4/6
f 491/4/6 490/4/6 492/4/6
f 493/3/6 494/3/6 495/3/6
f 495/3/6 494/3/6 496/3/6
