# MagicaVoxel @ Ephtracy

# group
o MasqueSocle

# material
mtllib Imprimante-0-MasqueSocle.mtl
usemtl palette

# normals
vn -1 0 0
vn 1 0 0
vn 0 0 1
vn 0 0 -1
vn 0 -1 0
vn 0 1 0

# texcoords
vt 0.427734 0.5
vt 0.970703 0.5
vt 0.978516 0.5
vt 0.986328 0.5

# verts
v 5.1 4 0
v 5.1 4 -8
v 5.1 4.3 -0.5
v 5.1 4.3 -7.5
v 5.1 4.4 -0.6
v 5.1 4.4 -7.4
v 5.1 4.5 -0.5
v 5.1 4.5 -0.6
v 5.1 4.5 -7.4
v 5.1 4.5 -7.5
v 5.1 11.4 -0.5
v 5.1 11.4 -7.5
v 5.1 11.5 0
v 5.1 11.5 -0.5
v 5.1 11.5 -7.5
v 5.1 11.5 -8
v 5.2 4.4 -0.6
v 5.2 4.4 -7.4
v 5.2 4.5 -0.5
v 5.2 4.5 -0.6
v 5.2 4.5 -7.4
v 5.2 4.5 -7.5
v 5.2 11.4 -0.5
v 5.2 11.4 -7.5
v 12.5 4.4 0
v 12.5 4.4 -0.1
v 12.5 4.4 -7.9
v 12.5 4.4 -8
v 12.5 4.5 0
v 12.5 4.5 -0.1
v 12.5 4.5 -7.9
v 12.5 4.5 -8
v 12.6 4.5 0
v 12.6 4.5 -0.1
v 12.6 4.5 -7.9
v 12.6 4.5 -8
v 12.6 11.4 0
v 12.6 11.4 -0.1
v 12.6 11.4 -7.9
v 12.6 11.4 -8
v 5.6 4.5 0
v 5.6 4.5 -0.1
v 5.6 4.5 -7.9
v 5.6 4.5 -8
v 5.6 11.4 0
v 5.6 11.4 -0.1
v 5.6 11.4 -7.9
v 5.6 11.4 -8
v 5.7 4.4 0
v 5.7 4.4 -0.1
v 5.7 4.4 -7.9
v 5.7 4.4 -8
v 5.7 4.5 0
v 5.7 4.5 -0.1
v 5.7 4.5 -7.9
v 5.7 4.5 -8
v 13 4.4 -0.6
v 13 4.4 -7.4
v 13 4.5 -0.5
v 13 4.5 -0.6
v 13 4.5 -7.4
v 13 4.5 -7.5
v 13 11.4 -0.5
v 13 11.4 -7.5
v 13.1 4 0
v 13.1 4 -8
v 13.1 4.3 -0.5
v 13.1 4.3 -7.5
v 13.1 4.4 -0.6
v 13.1 4.4 -7.4
v 13.1 4.5 -0.5
v 13.1 4.5 -0.6
v 13.1 4.5 -7.4
v 13.1 4.5 -7.5
v 13.1 11.4 -0.5
v 13.1 11.4 -7.5
v 13.1 11.5 0
v 13.1 11.5 -0.5
v 13.1 11.5 -7.5
v 13.1 11.5 -8
v 5.1 4 0
v 5.1 11.5 0
v 5.6 4.3 0
v 5.6 4.5 0
v 5.6 11.4 0
v 5.6 11.5 0
v 5.7 4.4 0
v 5.7 4.5 0
v 12.5 4.4 0
v 12.5 4.5 0
v 12.6 4.3 0
v 12.6 4.5 0
v 12.6 11.4 0
v 12.6 11.5 0
v 13.1 4 0
v 13.1 11.5 0
v 5.6 4.5 -0.1
v 5.6 11.4 -0.1
v 5.7 4.4 -0.1
v 5.7 4.5 -0.1
v 12.5 4.4 -0.1
v 12.5 4.5 -0.1
v 12.6 4.5 -0.1
v 12.6 11.4 -0.1
v 5.1 4.4 -7.4
v 5.1 4.5 -7.4
v 5.2 4.4 -7.4
v 5.2 4.5 -7.4
v 13 4.4 -7.4
v 13 4.5 -7.4
v 13.1 4.4 -7.4
v 13.1 4.5 -7.4
v 5.1 4.5 -7.5
v 5.1 11.4 -7.5
v 5.2 4.5 -7.5
v 5.2 11.4 -7.5
v 13 4.5 -7.5
v 13 11.4 -7.5
v 13.1 4.5 -7.5
v 13.1 11.4 -7.5
v 5.1 4.5 -0.5
v 5.1 11.4 -0.5
v 5.2 4.5 -0.5
v 5.2 11.4 -0.5
v 13 4.5 -0.5
v 13 11.4 -0.5
v 13.1 4.5 -0.5
v 13.1 11.4 -0.5
v 5.1 4.4 -0.6
v 5.1 4.5 -0.6
v 5.2 4.4 -0.6
v 5.2 4.5 -0.6
v 13 4.4 -0.6
v 13 4.5 -0.6
v 13.1 4.4 -0.6
v 13.1 4.5 -0.6
v 5.6 4.5 -7.9
v 5.6 11.4 -7.9
v 5.7 4.4 -7.9
v 5.7 4.5 -7.9
v 12.5 4.4 -7.9
v 12.5 4.5 -7.9
v 12.6 4.5 -7.9
v 12.6 11.4 -7.9
v 5.1 4 -8
v 5.1 11.5 -8
v 5.6 4.3 -8
v 5.6 4.5 -8
v 5.6 11.4 -8
v 5.6 11.5 -8
v 5.7 4.4 -8
v 5.7 4.5 -8
v 12.5 4.4 -8
v 12.5 4.5 -8
v 12.6 4.3 -8
v 12.6 4.5 -8
v 12.6 11.4 -8
v 12.6 11.5 -8
v 13.1 4 -8
v 13.1 11.5 -8
v 5.1 4 0
v 13.1 4 0
v 5.6 4 -0.1
v 12.6 4 -0.1
v 5.2 4 -0.5
v 5.6 4 -0.5
v 12.6 4 -0.5
v 13 4 -0.5
v 5.2 4 -7.5
v 5.6 4 -7.5
v 12.6 4 -7.5
v 13 4 -7.5
v 5.6 4 -7.9
v 12.6 4 -7.9
v 5.1 4 -8
v 13.1 4 -8
v 5.6 11.4 0
v 12.6 11.4 0
v 5.6 11.4 -0.1
v 12.6 11.4 -0.1
v 5.1 11.4 -0.5
v 5.2 11.4 -0.5
v 13 11.4 -0.5
v 13.1 11.4 -0.5
v 5.1 11.4 -7.5
v 5.2 11.4 -7.5
v 13 11.4 -7.5
v 13.1 11.4 -7.5
v 5.6 11.4 -7.9
v 12.6 11.4 -7.9
v 5.6 11.4 -8
v 12.6 11.4 -8
v 5.7 4.4 0
v 12.5 4.4 0
v 5.7 4.4 -0.1
v 12.5 4.4 -0.1
v 5.1 4.4 -0.6
v 5.2 4.4 -0.6
v 13 4.4 -0.6
v 13.1 4.4 -0.6
v 5.1 4.4 -7.4
v 5.2 4.4 -7.4
v 13 4.4 -7.4
v 13.1 4.4 -7.4
v 5.7 4.4 -7.9
v 12.5 4.4 -7.9
v 5.7 4.4 -8
v 12.5 4.4 -8
v 5.6 4.5 0
v 5.7 4.5 0
v 12.5 4.5 0
v 12.6 4.5 0
v 5.6 4.5 -0.1
v 5.7 4.5 -0.1
v 12.5 4.5 -0.1
v 12.6 4.5 -0.1
v 5.1 4.5 -0.5
v 5.2 4.5 -0.5
v 13 4.5 -0.5
v 13.1 4.5 -0.5
v 5.1 4.5 -0.6
v 5.2 4.5 -0.6
v 13 4.5 -0.6
v 13.1 4.5 -0.6
v 5.1 4.5 -7.4
v 5.2 4.5 -7.4
v 13 4.5 -7.4
v 13.1 4.5 -7.4
v 5.1 4.5 -7.5
v 5.2 4.5 -7.5
v 13 4.5 -7.5
v 13.1 4.5 -7.5
v 5.6 4.5 -7.9
v 5.7 4.5 -7.9
v 12.5 4.5 -7.9
v 12.6 4.5 -7.9
v 5.6 4.5 -8
v 5.7 4.5 -8
v 12.5 4.5 -8
v 12.6 4.5 -8
v 5.1 11.5 0
v 5.6 11.5 0
v 12.6 11.5 0
v 13.1 11.5 0
v 5.6 11.5 -0.2
v 12.6 11.5 -0.2
v 5.1 11.5 -0.5
v 5.3 11.5 -0.5
v 5.6 11.5 -0.5
v 12.6 11.5 -0.5
v 12.9 11.5 -0.5
v 13.1 11.5 -0.5
v 5.1 11.5 -7.5
v 5.3 11.5 -7.5
v 5.6 11.5 -7.5
v 12.6 11.5 -7.5
v 12.9 11.5 -7.5
v 13.1 11.5 -7.5
v 5.6 11.5 -7.8
v 12.6 11.5 -7.8
v 5.1 11.5 -8
v 5.6 11.5 -8
v 12.6 11.5 -8
v 13.1 11.5 -8

# faces
f 3/2/1 2/2/1 1/2/1
f 4/2/1 2/2/1 3/2/1
f 5/1/1 4/1/1 3/1/1
f 6/1/1 4/1/1 5/1/1
f 7/2/1 3/2/1 1/2/1
f 7/1/1 5/1/1 3/1/1
f 8/1/1 5/1/1 7/1/1
f 9/1/1 4/1/1 6/1/1
f 10/2/1 2/2/1 4/2/1
f 10/1/1 4/1/1 9/1/1
f 11/2/1 7/2/1 1/2/1
f 12/2/1 2/2/1 10/2/1
f 13/2/1 11/2/1 1/2/1
f 14/4/1 12/4/1 11/4/1
f 14/2/1 11/2/1 13/2/1
f 15/2/1 2/2/1 12/2/1
f 15/4/1 12/4/1 14/4/1
f 16/2/1 2/2/1 15/2/1
f 20/3/1 18/3/1 17/3/1
f 21/3/1 18/3/1 20/3/1
f 23/3/1 20/3/1 19/3/1
f 23/3/1 22/3/1 21/3/1
f 23/3/1 21/3/1 20/3/1
f 24/3/1 22/3/1 23/3/1
f 29/1/1 26/1/1 25/1/1
f 30/1/1 26/1/1 29/1/1
f 31/1/1 28/1/1 27/1/1
f 32/1/1 28/1/1 31/1/1
f 37/2/1 34/2/1 33/2/1
f 38/2/1 34/2/1 37/2/1
f 39/2/1 36/2/1 35/2/1
f 40/2/1 36/2/1 39/2/1
f 41/2/2 42/2/2 45/2/2
f 45/2/2 42/2/2 46/2/2
f 43/2/2 44/2/2 47/2/2
f 47/2/2 44/2/2 48/2/2
f 49/1/2 50/1/2 53/1/2
f 53/1/2 50/1/2 54/1/2
f 51/1/2 52/1/2 55/1/2
f 55/1/2 52/1/2 56/1/2
f 57/3/2 58/3/2 60/3/2
f 60/3/2 58/3/2 61/3/2
f 59/3/2 60/3/2 63/3/2
f 61/3/2 62/3/2 63/3/2
f 60/3/2 61/3/2 63/3/2
f 63/3/2 62/3/2 64/3/2
f 65/2/2 66/2/2 67/2/2
f 67/2/2 66/2/2 68/2/2
f 67/1/2 68/1/2 69/1/2
f 69/1/2 68/1/2 70/1/2
f 65/2/2 67/2/2 71/2/2
f 67/1/2 69/1/2 71/1/2
f 71/1/2 69/1/2 72/1/2
f 70/1/2 68/1/2 73/1/2
f 68/2/2 66/2/2 74/2/2
f 73/1/2 68/1/2 74/1/2
f 65/2/2 71/2/2 75/2/2
f 74/2/2 66/2/2 76/2/2
f 65/2/2 75/2/2 77/2/2
f 75/4/2 76/4/2 78/4/2
f 77/2/2 75/2/2 78/2/2
f 76/2/2 66/2/2 79/2/2
f 78/4/2 76/4/2 79/4/2
f 79/2/2 66/2/2 80/2/2
f 83/2/3 82/2/3 81/2/3
f 84/2/3 82/2/3 83/2/3
f 85/2/3 82/2/3 84/2/3
f 86/2/3 82/2/3 85/2/3
f 87/1/3 84/1/3 83/1/3
f 88/1/3 84/1/3 87/1/3
f 89/1/3 87/1/3 83/1/3
f 91/2/3 83/2/3 81/2/3
f 91/1/3 90/1/3 89/1/3
f 91/1/3 89/1/3 83/1/3
f 92/1/3 90/1/3 91/1/3
f 93/4/3 86/4/3 85/4/3
f 94/4/3 86/4/3 93/4/3
f 95/2/3 92/2/3 91/2/3
f 95/2/3 91/2/3 81/2/3
f 95/2/3 94/2/3 93/2/3
f 95/2/3 93/2/3 92/2/3
f 96/2/3 94/2/3 95/2/3
f 100/3/3 98/3/3 97/3/3
f 101/3/3 100/3/3 99/3/3
f 102/3/3 98/3/3 100/3/3
f 102/3/3 100/3/3 101/3/3
f 103/3/3 98/3/3 102/3/3
f 104/3/3 98/3/3 103/3/3
f 107/1/3 106/1/3 105/1/3
f 108/1/3 106/1/3 107/1/3
f 111/1/3 110/1/3 109/1/3
f 112/1/3 110/1/3 111/1/3
f 115/2/3 114/2/3 113/2/3
f 116/2/3 114/2/3 115/2/3
f 119/2/3 118/2/3 117/2/3
f 120/2/3 118/2/3 119/2/3
f 121/2/4 122/2/4 123/2/4
f 123/2/4 122/2/4 124/2/4
f 125/2/4 126/2/4 127/2/4
f 127/2/4 126/2/4 128/2/4
f 129/1/4 130/1/4 131/1/4
f 131/1/4 130/1/4 132/1/4
f 133/1/4 134/1/4 135/1/4
f 135/1/4 134/1/4 136/1/4
f 137/3/4 138/3/4 140/3/4
f 139/3/4 140/3/4 141/3/4
f 140/3/4 138/3/4 142/3/4
f 141/3/4 140/3/4 142/3/4
f 142/3/4 138/3/4 143/3/4
f 143/3/4 138/3/4 144/3/4
f 145/2/4 146/2/4 147/2/4
f 147/2/4 146/2/4 148/2/4
f 148/2/4 146/2/4 149/2/4
f 149/2/4 146/2/4 150/2/4
f 147/1/4 148/1/4 151/1/4
f 151/1/4 148/1/4 152/1/4
f 147/1/4 151/1/4 153/1/4
f 145/2/4 147/2/4 155/2/4
f 153/1/4 154/1/4 155/1/4
f 147/1/4 153/1/4 155/1/4
f 155/1/4 154/1/4 156/1/4
f 149/4/4 150/4/4 157/4/4
f 157/4/4 150/4/4 158/4/4
f 155/2/4 156/2/4 159/2/4
f 145/2/4 155/2/4 159/2/4
f 157/2/4 158/2/4 159/2/4
f 156/2/4 157/2/4 159/2/4
f 159/2/4 158/2/4 160/2/4
f 163/2/5 162/2/5 161/2/5
f 164/2/5 162/2/5 163/2/5
f 165/2/5 163/2/5 161/2/5
f 166/3/5 164/3/5 163/3/5
f 166/2/5 163/2/5 165/2/5
f 167/2/5 162/2/5 164/2/5
f 167/3/5 164/3/5 166/3/5
f 168/2/5 162/2/5 167/2/5
f 169/3/5 166/3/5 165/3/5
f 169/2/5 165/2/5 161/2/5
f 169/3/5 168/3/5 167/3/5
f 169/3/5 167/3/5 166/3/5
f 170/3/5 168/3/5 169/3/5
f 171/3/5 168/3/5 170/3/5
f 172/2/5 162/2/5 168/2/5
f 172/3/5 168/3/5 171/3/5
f 173/3/5 171/3/5 170/3/5
f 173/2/5 170/2/5 169/2/5
f 174/2/5 172/2/5 171/2/5
f 174/3/5 171/3/5 173/3/5
f 175/2/5 169/2/5 161/2/5
f 175/2/5 173/2/5 169/2/5
f 175/2/5 174/2/5 173/2/5
f 176/2/5 162/2/5 172/2/5
f 176/2/5 174/2/5 175/2/5
f 176/2/5 172/2/5 174/2/5
f 179/4/5 178/4/5 177/4/5
f 180/4/5 178/4/5 179/4/5
f 185/4/5 182/4/5 181/4/5
f 186/4/5 182/4/5 185/4/5
f 187/4/5 184/4/5 183/4/5
f 188/4/5 184/4/5 187/4/5
f 191/4/5 190/4/5 189/4/5
f 192/4/5 190/4/5 191/4/5
f 193/1/6 194/1/6 195/1/6
f 195/1/6 194/1/6 196/1/6
f 197/1/6 198/1/6 201/1/6
f 201/1/6 198/1/6 202/1/6
f 199/1/6 200/1/6 203/1/6
f 203/1/6 200/1/6 204/1/6
f 205/1/6 206/1/6 207/1/6
f 207/1/6 206/1/6 208/1/6
f 209/1/6 210/1/6 213/1/6
f 213/1/6 210/1/6 214/1/6
f 211/1/6 212/1/6 215/1/6
f 215/1/6 212/1/6 216/1/6
f 217/1/6 218/1/6 221/1/6
f 221/1/6 218/1/6 222/1/6
f 219/1/6 220/1/6 223/1/6
f 223/1/6 220/1/6 224/1/6
f 225/1/6 226/1/6 229/1/6
f 229/1/6 226/1/6 230/1/6
f 227/1/6 228/1/6 231/1/6
f 231/1/6 228/1/6 232/1/6
f 233/1/6 234/1/6 237/1/6
f 237/1/6 234/1/6 238/1/6
f 235/1/6 236/1/6 239/1/6
f 239/1/6 236/1/6 240/1/6
f 241/2/6 242/2/6 245/2/6
f 242/4/6 243/4/6 245/4/6
f 243/2/6 244/2/6 246/2/6
f 245/4/6 243/4/6 246/4/6
f 241/2/6 245/2/6 247/2/6
f 247/2/6 245/2/6 248/2/6
f 245/3/6 246/3/6 249/3/6
f 248/2/6 245/2/6 249/2/6
f 246/2/6 244/2/6 250/2/6
f 249/3/6 246/3/6 250/3/6
f 250/2/6 244/2/6 251/2/6
f 251/2/6 244/2/6 252/2/6
f 247/4/6 248/4/6 253/4/6
f 248/3/6 249/3/6 254/3/6
f 253/4/6 248/4/6 254/4/6
f 249/3/6 250/3/6 254/3/6
f 250/3/6 251/3/6 254/3/6
f 254/3/6 251/3/6 255/3/6
f 255/3/6 251/3/6 256/3/6
f 251/4/6 252/4/6 257/4/6
f 256/3/6 251/3/6 257/3/6
f 257/4/6 252/4/6 258/4/6
f 255/3/6 256/3/6 259/3/6
f 253/2/6 254/2/6 259/2/6
f 254/2/6 255/2/6 259/2/6
f 257/2/6 258/2/6 260/2/6
f 259/3/6 256/3/6 260/3/6
f 256/2/6 257/2/6 260/2/6
f 253/2/6 259/2/6 261/2/6
f 259/4/6 260/4/6 262/4/6
f 261/2/6 259/2/6 262/2/6
f 260/2/6 258/2/6 263/2/6
f 262/4/6 260/4/6 263/4/6
f 263/2/6 258/2/6 264/2/6
