# MagicaVoxel @ Ephtracy

# group
o Ecran

# material
mtllib Imprimante-3-Ecran.mtl
usemtl palette

# normals
vn -1 0 0
vn 1 0 0
vn 0 0 -1
vn 0 0 1
vn 0 -1 0
vn 0 1 0

# texcoords
vt 0.427734 0.5
vt 0.716797 0.5
vt 0.970703 0.5

# verts
v -0.7 2.6 -0.9
v -0.7 2.6 0.9
v -0.7 2.7 -0.9
v -0.7 2.7 0.9
v -0.6 2.7 -0.8
v -0.6 2.7 0.8
v -0.6 2.8 -0.8
v -0.6 2.8 0.8
v 0.6 2.7 -0.8
v 0.6 2.7 0.8
v 0.6 2.8 -0.8
v 0.6 2.8 0.8
v 0.7 2.6 -0.9
v 0.7 2.6 0.9
v 0.7 2.7 -0.9
v 0.7 2.7 0.9
v -0.7 2.6 -0.9
v -0.7 2.7 -0.9
v 0.7 2.6 -0.9
v 0.7 2.7 -0.9
v -0.6 2.7 -0.8
v -0.6 2.8 -0.8
v 0.6 2.7 -0.8
v 0.6 2.8 -0.8
v -0.6 2.7 0.8
v -0.6 2.8 0.8
v 0.6 2.7 0.8
v 0.6 2.8 0.8
v -0.7 2.6 0.9
v -0.7 2.7 0.9
v 0.7 2.6 0.9
v 0.7 2.7 0.9
v -0.7 2.6 -0.9
v 0.7 2.6 -0.9
v -0.7 2.6 0.9
v 0.7 2.6 0.9
v -0.7 2.7 -0.9
v 0.7 2.7 -0.9
v -0.6 2.7 -0.8
v 0.6 2.7 -0.8
v -0.6 2.7 0.8
v 0.6 2.7 0.8
v -0.7 2.7 0.9
v 0.7 2.7 0.9
v -0.6 2.8 -0.8
v 0.6 2.8 -0.8
v -0.5 2.8 -0.7
v 0.5 2.8 -0.7
v -0.5 2.8 0.7
v 0.5 2.8 0.7
v -0.6 2.8 0.8
v 0.6 2.8 0.8

# faces
f 1/3/1 2/3/1 3/3/1
f 3/3/1 2/3/1 4/3/1
f 5/1/1 6/1/1 7/1/1
f 7/1/1 6/1/1 8/1/1
f 11/1/2 10/1/2 9/1/2
f 12/1/2 10/1/2 11/1/2
f 15/3/2 14/3/2 13/3/2
f 16/3/2 14/3/2 15/3/2
f 17/3/3 18/3/3 19/3/3
f 19/3/3 18/3/3 20/3/3
f 21/1/3 22/1/3 23/1/3
f 23/1/3 22/1/3 24/1/3
f 27/1/4 26/1/4 25/1/4
f 28/1/4 26/1/4 27/1/4
f 31/3/4 30/3/4 29/3/4
f 32/3/4 30/3/4 31/3/4
f 33/3/5 34/3/5 35/3/5
f 35/3/5 34/3/5 36/3/5
f 39/3/6 38/3/6 37/3/6
f 40/3/6 38/3/6 39/3/6
f 41/3/6 39/3/6 37/3/6
f 42/3/6 38/3/6 40/3/6
f 43/3/6 41/3/6 37/3/6
f 43/3/6 42/3/6 41/3/6
f 44/3/6 38/3/6 42/3/6
f 44/3/6 42/3/6 43/3/6
f 47/1/6 46/1/6 45/1/6
f 48/1/6 46/1/6 47/1/6
f 49/1/6 47/1/6 45/1/6
f 49/2/6 48/2/6 47/2/6
f 50/1/6 46/1/6 48/1/6
f 50/2/6 48/2/6 49/2/6
f 51/1/6 49/1/6 45/1/6
f 51/1/6 50/1/6 49/1/6
f 52/1/6 46/1/6 50/1/6
f 52/1/6 50/1/6 51/1/6
