# MagicaVoxel @ Ephtracy

# group
o Socle

# material
mtllib Imprimante-1-Socle.mtl
usemtl palette

# normals
vn -1 0 0
vn 1 0 0
vn 0 0 1
vn 0 0 -1
vn 0 -1 0
vn 0 1 0

# texcoords
vt 0.427734 0.5
vt 0.716797 0.5
vt 0.970703 0.5
vt 0.986328 0.5

# verts
v 1.1 0 4
v 1.1 0 -4
v 1.1 0.3 3.5
v 1.1 0.3 -3.5
v 1.1 0.4 3.4
v 1.1 0.4 -3.4
v 1.1 0.5 3.5
v 1.1 0.5 3.4
v 1.1 0.5 -3.4
v 1.1 0.5 -3.5
v 1.1 7.4 3.5
v 1.1 7.4 -3.5
v 1.1 7.5 4
v 1.1 7.5 3.5
v 1.1 7.5 -3.5
v 1.1 7.5 -4
v 8.5 0.4 4
v 8.5 0.4 3.9
v 8.5 0.4 3.4
v 8.5 0.4 -3.4
v 8.5 0.4 -3.9
v 8.5 0.4 -4
v 8.5 0.5 4
v 8.5 0.5 3.4
v 8.5 0.5 -3.4
v 8.5 0.5 -4
v 8.6 0.5 4
v 8.6 0.5 3.5
v 8.6 0.5 -3.5
v 8.6 0.5 -4
v 8.6 7.4 4
v 8.6 7.4 3.8
v 8.6 7.4 -3.8
v 8.6 7.4 -4
v 8.6 7.5 3.8
v 8.6 7.5 3.5
v 8.6 7.5 -3.5
v 8.6 7.5 -3.8
v 8.9 7.4 3.5
v 8.9 7.4 -3.5
v 8.9 7.5 3.5
v 8.9 7.5 -3.5
v 1.3 7.4 3.5
v 1.3 7.4 -3.5
v 1.3 7.5 3.5
v 1.3 7.5 -3.5
v 1.6 0.5 4
v 1.6 0.5 3.5
v 1.6 0.5 -3.5
v 1.6 0.5 -4
v 1.6 7.4 4
v 1.6 7.4 3.8
v 1.6 7.4 -3.8
v 1.6 7.4 -4
v 1.6 7.5 3.8
v 1.6 7.5 3.5
v 1.6 7.5 -3.5
v 1.6 7.5 -3.8
v 1.7 0.4 4
v 1.7 0.4 3.9
v 1.7 0.4 3.4
v 1.7 0.4 -3.4
v 1.7 0.4 -3.9
v 1.7 0.4 -4
v 1.7 0.5 4
v 1.7 0.5 3.4
v 1.7 0.5 -3.4
v 1.7 0.5 -4
v 9.1 0 4
v 9.1 0 -4
v 9.1 0.3 3.5
v 9.1 0.3 -3.5
v 9.1 0.4 3.4
v 9.1 0.4 -3.4
v 9.1 0.5 3.5
v 9.1 0.5 3.4
v 9.1 0.5 -3.4
v 9.1 0.5 -3.5
v 9.1 7.4 3.5
v 9.1 7.4 -3.5
v 9.1 7.5 4
v 9.1 7.5 3.5
v 9.1 7.5 -3.5
v 9.1 7.5 -4
v 1.1 0 4
v 1.1 7.5 4
v 1.6 0.3 4
v 1.6 0.5 4
v 1.6 7.4 4
v 1.6 7.5 4
v 1.7 0.4 4
v 1.7 0.5 4
v 8.5 0.4 4
v 8.5 0.5 4
v 8.6 0.3 4
v 8.6 0.5 4
v 8.6 7.4 4
v 8.6 7.5 4
v 9.1 0 4
v 9.1 7.5 4
v 1.1 0.4 -3.4
v 1.1 0.5 -3.4
v 1.2 0.4 -3.4
v 1.7 0.4 -3.4
v 1.7 0.5 -3.4
v 8.5 0.4 -3.4
v 8.5 0.5 -3.4
v 9 0.4 -3.4
v 9.1 0.4 -3.4
v 9.1 0.5 -3.4
v 1.1 0.5 -3.5
v 1.1 7.4 -3.5
v 1.3 7.4 -3.5
v 1.3 7.5 -3.5
v 1.6 0.5 -3.5
v 1.6 7.5 -3.5
v 8.6 0.5 -3.5
v 8.6 7.5 -3.5
v 8.9 7.4 -3.5
v 8.9 7.5 -3.5
v 9.1 0.5 -3.5
v 9.1 7.4 -3.5
v 1.6 7.4 -3.8
v 1.6 7.5 -3.8
v 8.6 7.4 -3.8
v 8.6 7.5 -3.8
v 1.6 7.4 3.8
v 1.6 7.5 3.8
v 8.6 7.4 3.8
v 8.6 7.5 3.8
v 1.1 0.5 3.5
v 1.1 7.4 3.5
v 1.3 7.4 3.5
v 1.3 7.5 3.5
v 1.6 0.5 3.5
v 1.6 7.5 3.5
v 8.6 0.5 3.5
v 8.6 7.5 3.5
v 8.9 7.4 3.5
v 8.9 7.5 3.5
v 9.1 0.5 3.5
v 9.1 7.4 3.5
v 1.1 0.4 3.4
v 1.1 0.5 3.4
v 1.2 0.4 3.4
v 1.7 0.4 3.4
v 1.7 0.5 3.4
v 8.5 0.4 3.4
v 8.5 0.5 3.4
v 9 0.4 3.4
v 9.1 0.4 3.4
v 9.1 0.5 3.4
v 1.1 0 -4
v 1.1 7.5 -4
v 1.6 0.3 -4
v 1.6 0.5 -4
v 1.6 7.4 -4
v 1.6 7.5 -4
v 1.7 0.4 -4
v 1.7 0.5 -4
v 8.5 0.4 -4
v 8.5 0.5 -4
v 8.6 0.3 -4
v 8.6 0.5 -4
v 8.6 7.4 -4
v 8.6 7.5 -4
v 9.1 0 -4
v 9.1 7.5 -4
v 1.1 0 4
v 9.1 0 4
v 1.1 0 -4
v 9.1 0 -4
v 1.6 7.4 4
v 8.6 7.4 4
v 1.6 7.4 3.8
v 8.6 7.4 3.8
v 1.1 7.4 3.5
v 1.3 7.4 3.5
v 8.9 7.4 3.5
v 9.1 7.4 3.5
v 1.1 7.4 -3.5
v 1.3 7.4 -3.5
v 8.9 7.4 -3.5
v 9.1 7.4 -3.5
v 1.6 7.4 -3.8
v 8.6 7.4 -3.8
v 1.6 7.4 -4
v 8.6 7.4 -4
v 1.7 0.4 4
v 8.5 0.4 4
v 1.7 0.4 3.9
v 8.5 0.4 3.9
v 1.1 0.4 3.4
v 1.2 0.4 3.4
v 1.7 0.4 3.4
v 8.5 0.4 3.4
v 9 0.4 3.4
v 9.1 0.4 3.4
v 3.7 0.4 1.6
v 3.8 0.4 1.6
v 6.4 0.4 1.6
v 6.5 0.4 1.6
v 3.6 0.4 1.5
v 3.7 0.4 1.5
v 6.5 0.4 1.5
v 6.6 0.4 1.5
v 3.5 0.4 1.4
v 3.6 0.4 1.4
v 6.6 0.4 1.4
v 6.7 0.4 1.4
v 3.5 0.4 1.3
v 3.8 0.4 1.3
v 6.4 0.4 1.3
v 6.7 0.4 1.3
v 4.3 0.4 0.8
v 5.9 0.4 0.8
v 4.3 0.4 -0.8
v 5.9 0.4 -0.8
v 3.5 0.4 -1.3
v 3.8 0.4 -1.3
v 6.4 0.4 -1.3
v 6.7 0.4 -1.3
v 3.5 0.4 -1.4
v 3.6 0.4 -1.4
v 6.6 0.4 -1.4
v 6.7 0.4 -1.4
v 3.6 0.4 -1.5
v 3.7 0.4 -1.5
v 6.5 0.4 -1.5
v 6.6 0.4 -1.5
v 3.7 0.4 -1.6
v 3.8 0.4 -1.6
v 6.4 0.4 -1.6
v 6.5 0.4 -1.6
v 1.1 0.4 -3.4
v 1.2 0.4 -3.4
v 1.7 0.4 -3.4
v 8.5 0.4 -3.4
v 9 0.4 -3.4
v 9.1 0.4 -3.4
v 1.7 0.4 -3.9
v 8.5 0.4 -3.9
v 1.7 0.4 -4
v 8.5 0.4 -4
v 1.6 0.5 4
v 1.7 0.5 4
v 8.5 0.5 4
v 8.6 0.5 4
v 1.1 0.5 3.5
v 1.6 0.5 3.5
v 8.6 0.5 3.5
v 9.1 0.5 3.5
v 1.1 0.5 3.4
v 1.7 0.5 3.4
v 8.5 0.5 3.4
v 9.1 0.5 3.4
v 1.1 0.5 -3.4
v 1.7 0.5 -3.4
v 8.5 0.5 -3.4
v 9.1 0.5 -3.4
v 1.1 0.5 -3.5
v 1.6 0.5 -3.5
v 8.6 0.5 -3.5
v 9.1 0.5 -3.5
v 1.6 0.5 -4
v 1.7 0.5 -4
v 8.5 0.5 -4
v 8.6 0.5 -4
v 1.1 7.5 4
v 1.6 7.5 4
v 8.6 7.5 4
v 9.1 7.5 4
v 1.6 7.5 3.8
v 8.6 7.5 3.8
v 1.1 7.5 3.5
v 1.3 7.5 3.5
v 1.6 7.5 3.5
v 8.6 7.5 3.5
v 8.9 7.5 3.5
v 9.1 7.5 3.5
v 1.1 7.5 -3.5
v 1.3 7.5 -3.5
v 1.6 7.5 -3.5
v 8.6 7.5 -3.5
v 8.9 7.5 -3.5
v 9.1 7.5 -3.5
v 1.6 7.5 -3.8
v 8.6 7.5 -3.8
v 1.1 7.5 -4
v 1.6 7.5 -4
v 8.6 7.5 -4
v 9.1 7.5 -4

# faces
f 3/3/1 2/3/1 1/3/1
f 4/3/1 2/3/1 3/3/1
f 5/1/1 4/1/1 3/1/1
f 6/1/1 4/1/1 5/1/1
f 7/3/1 3/3/1 1/3/1
f 7/1/1 5/1/1 3/1/1
f 8/1/1 5/1/1 7/1/1
f 9/1/1 4/1/1 6/1/1
f 10/3/1 2/3/1 4/3/1
f 10/1/1 4/1/1 9/1/1
f 11/3/1 7/3/1 1/3/1
f 12/3/1 2/3/1 10/3/1
f 13/3/1 11/3/1 1/3/1
f 14/4/1 12/4/1 11/4/1
f 14/3/1 11/3/1 13/3/1
f 15/3/1 2/3/1 12/3/1
f 15/4/1 12/4/1 14/4/1
f 16/3/1 2/3/1 15/3/1
f 23/1/1 18/1/1 17/1/1
f 23/1/1 19/1/1 18/1/1
f 24/1/1 19/1/1 23/1/1
f 25/1/1 22/1/1 21/1/1
f 25/1/1 21/1/1 20/1/1
f 26/1/1 22/1/1 25/1/1
f 31/3/1 28/3/1 27/3/1
f 32/3/1 28/3/1 31/3/1
f 33/3/1 30/3/1 29/3/1
f 34/3/1 30/3/1 33/3/1
f 35/3/1 28/3/1 32/3/1
f 36/3/1 28/3/1 35/3/1
f 37/3/1 33/3/1 29/3/1
f 38/3/1 33/3/1 37/3/1
f 41/4/1 40/4/1 39/4/1
f 42/4/1 40/4/1 41/4/1
f 43/4/2 44/4/2 45/4/2
f 45/4/2 44/4/2 46/4/2
f 47/3/2 48/3/2 51/3/2
f 51/3/2 48/3/2 52/3/2
f 49/3/2 50/3/2 53/3/2
f 53/3/2 50/3/2 54/3/2
f 52/3/2 48/3/2 55/3/2
f 55/3/2 48/3/2 56/3/2
f 49/3/2 53/3/2 57/3/2
f 57/3/2 53/3/2 58/3/2
f 59/1/2 60/1/2 65/1/2
f 60/1/2 61/1/2 65/1/2
f 65/1/2 61/1/2 66/1/2
f 63/1/2 64/1/2 67/1/2
f 62/1/2 63/1/2 67/1/2
f 67/1/2 64/1/2 68/1/2
f 69/3/2 70/3/2 71/3/2
f 71/3/2 70/3/2 72/3/2
f 71/1/2 72/1/2 73/1/2
f 73/1/2 72/1/2 74/1/2
f 69/3/2 71/3/2 75/3/2
f 71/1/2 73/1/2 75/1/2
f 75/1/2 73/1/2 76/1/2
f 74/1/2 72/1/2 77/1/2
f 72/3/2 70/3/2 78/3/2
f 77/1/2 72/1/2 78/1/2
f 69/3/2 75/3/2 79/3/2
f 78/3/2 70/3/2 80/3/2
f 69/3/2 79/3/2 81/3/2
f 79/4/2 80/4/2 82/4/2
f 81/3/2 79/3/2 82/3/2
f 80/3/2 70/3/2 83/3/2
f 82/4/2 80/4/2 83/4/2
f 83/3/2 70/3/2 84/3/2
f 87/3/3 86/3/3 85/3/3
f 88/3/3 86/3/3 87/3/3
f 89/3/3 86/3/3 88/3/3
f 90/3/3 86/3/3 89/3/3
f 91/1/3 88/1/3 87/1/3
f 92/1/3 88/1/3 91/1/3
f 93/1/3 91/1/3 87/1/3
f 95/3/3 87/3/3 85/3/3
f 95/1/3 94/1/3 93/1/3
f 95/1/3 93/1/3 87/1/3
f 96/1/3 94/1/3 95/1/3
f 97/4/3 90/4/3 89/4/3
f 98/4/3 90/4/3 97/4/3
f 99/3/3 96/3/3 95/3/3
f 99/3/3 95/3/3 85/3/3
f 99/3/3 98/3/3 97/3/3
f 99/3/3 97/3/3 96/3/3
f 100/3/3 98/3/3 99/3/3
f 103/1/3 102/1/3 101/1/3
f 104/1/3 102/1/3 103/1/3
f 105/1/3 102/1/3 104/1/3
f 108/1/3 107/1/3 106/1/3
f 109/1/3 107/1/3 108/1/3
f 110/1/3 107/1/3 109/1/3
f 113/3/3 112/3/3 111/3/3
f 115/3/3 113/3/3 111/3/3
f 115/3/3 114/3/3 113/3/3
f 116/3/3 114/3/3 115/3/3
f 119/3/3 118/3/3 117/3/3
f 120/3/3 118/3/3 119/3/3
f 121/3/3 119/3/3 117/3/3
f 122/3/3 119/3/3 121/3/3
f 125/4/3 124/4/3 123/4/3
f 126/4/3 124/4/3 125/4/3
f 127/4/4 128/4/4 129/4/4
f 129/4/4 128/4/4 130/4/4
f 131/3/4 132/3/4 133/3/4
f 131/3/4 133/3/4 135/3/4
f 133/3/4 134/3/4 135/3/4
f 135/3/4 134/3/4 136/3/4
f 137/3/4 138/3/4 139/3/4
f 139/3/4 138/3/4 140/3/4
f 137/3/4 139/3/4 141/3/4
f 141/3/4 139/3/4 142/3/4
f 143/1/4 144/1/4 145/1/4
f 145/1/4 144/1/4 146/1/4
f 146/1/4 144/1/4 147/1/4
f 148/1/4 149/1/4 150/1/4
f 150/1/4 149/1/4 151/1/4
f 151/1/4 149/1/4 152/1/4
f 153/3/4 154/3/4 155/3/4
f 155/3/4 154/3/4 156/3/4
f 156/3/4 154/3/4 157/3/4
f 157/3/4 154/3/4 158/3/4
f 155/1/4 156/1/4 159/1/4
f 159/1/4 156/1/4 160/1/4
f 155/1/4 159/1/4 161/1/4
f 153/3/4 155/3/4 163/3/4
f 161/1/4 162/1/4 163/1/4
f 155/1/4 161/1/4 163/1/4
f 163/1/4 162/1/4 164/1/4
f 157/4/4 158/4/4 165/4/4
f 165/4/4 158/4/4 166/4/4
f 163/3/4 164/3/4 167/3/4
f 153/3/4 163/3/4 167/3/4
f 165/3/4 166/3/4 167/3/4
f 164/3/4 165/3/4 167/3/4
f 167/3/4 166/3/4 168/3/4
f 171/3/5 170/3/5 169/3/5
f 172/3/5 170/3/5 171/3/5
f 175/4/5 174/4/5 173/4/5
f 176/4/5 174/4/5 175/4/5
f 181/4/5 178/4/5 177/4/5
f 182/4/5 178/4/5 181/4/5
f 183/4/5 180/4/5 179/4/5
f 184/4/5 180/4/5 183/4/5
f 187/4/5 186/4/5 185/4/5
f 188/4/5 186/4/5 187/4/5
f 189/1/6 190/1/6 191/1/6
f 191/1/6 190/1/6 192/1/6
f 191/3/6 192/3/6 195/3/6
f 195/3/6 192/3/6 196/3/6
f 195/3/6 196/3/6 199/3/6
f 194/3/6 195/3/6 199/3/6
f 196/3/6 197/3/6 199/3/6
f 199/3/6 197/3/6 200/3/6
f 200/3/6 197/3/6 201/3/6
f 201/3/6 197/3/6 202/3/6
f 194/3/6 199/3/6 203/3/6
f 199/2/6 200/2/6 204/2/6
f 203/3/6 199/3/6 204/3/6
f 202/3/6 197/3/6 205/3/6
f 201/2/6 202/2/6 205/2/6
f 205/3/6 197/3/6 206/3/6
f 194/3/6 203/3/6 207/3/6
f 203/2/6 204/2/6 208/2/6
f 207/3/6 203/3/6 208/3/6
f 206/3/6 197/3/6 209/3/6
f 205/2/6 206/2/6 209/2/6
f 209/3/6 197/3/6 210/3/6
f 194/3/6 207/3/6 211/3/6
f 207/2/6 208/2/6 211/2/6
f 204/2/6 200/2/6 212/2/6
f 211/2/6 208/2/6 212/2/6
f 208/2/6 204/2/6 212/2/6
f 200/3/6 201/3/6 212/3/6
f 205/2/6 209/2/6 213/2/6
f 212/3/6 201/3/6 213/3/6
f 209/2/6 210/2/6 213/2/6
f 201/2/6 205/2/6 213/2/6
f 210/3/6 197/3/6 214/3/6
f 213/2/6 210/2/6 214/2/6
f 211/3/6 212/3/6 215/3/6
f 212/3/6 213/3/6 215/3/6
f 213/3/6 214/3/6 215/3/6
f 215/3/6 214/3/6 216/3/6
f 211/3/6 215/3/6 217/3/6
f 215/2/6 216/2/6 217/2/6
f 216/3/6 214/3/6 218/3/6
f 217/2/6 216/2/6 218/2/6
f 194/3/6 211/3/6 219/3/6
f 211/3/6 217/3/6 219/3/6
f 217/3/6 218/3/6 219/3/6
f 219/3/6 218/3/6 220/3/6
f 218/3/6 214/3/6 221/3/6
f 220/3/6 218/3/6 221/3/6
f 214/3/6 197/3/6 222/3/6
f 221/3/6 214/3/6 222/3/6
f 219/2/6 220/2/6 223/2/6
f 194/3/6 219/3/6 223/3/6
f 223/2/6 220/2/6 224/2/6
f 221/2/6 222/2/6 225/2/6
f 222/3/6 197/3/6 226/3/6
f 225/2/6 222/2/6 226/2/6
f 224/2/6 220/2/6 227/2/6
f 223/3/6 224/3/6 227/3/6
f 227/2/6 220/2/6 228/2/6
f 221/2/6 225/2/6 229/2/6
f 225/3/6 226/3/6 230/3/6
f 229/2/6 225/2/6 230/2/6
f 228/2/6 220/2/6 231/2/6
f 227/3/6 228/3/6 231/3/6
f 220/3/6 221/3/6 232/3/6
f 231/2/6 220/2/6 232/2/6
f 221/2/6 229/2/6 233/2/6
f 232/3/6 221/3/6 233/3/6
f 229/3/6 230/3/6 234/3/6
f 233/2/6 229/2/6 234/2/6
f 193/1/6 194/1/6 235/1/6
f 227/3/6 231/3/6 236/3/6
f 235/1/6 194/1/6 236/1/6
f 194/3/6 223/3/6 236/3/6
f 233/3/6 234/3/6 236/3/6
f 232/3/6 233/3/6 236/3/6
f 223/3/6 227/3/6 236/3/6
f 231/3/6 232/3/6 236/3/6
f 236/3/6 234/3/6 237/3/6
f 234/3/6 230/3/6 238/3/6
f 237/3/6 234/3/6 238/3/6
f 230/3/6 226/3/6 238/3/6
f 226/3/6 197/3/6 238/3/6
f 197/1/6 198/1/6 239/1/6
f 238/3/6 197/3/6 239/3/6
f 239/1/6 198/1/6 240/1/6
f 237/3/6 238/3/6 241/3/6
f 241/3/6 238/3/6 242/3/6
f 241/1/6 242/1/6 243/1/6
f 243/1/6 242/1/6 244/1/6
f 245/1/6 246/1/6 250/1/6
f 247/1/6 248/1/6 251/1/6
f 249/1/6 250/1/6 253/1/6
f 250/1/6 246/1/6 254/1/6
f 253/1/6 250/1/6 254/1/6
f 251/1/6 252/1/6 255/1/6
f 247/1/6 251/1/6 255/1/6
f 255/1/6 252/1/6 256/1/6
f 257/1/6 258/1/6 261/1/6
f 261/1/6 258/1/6 262/1/6
f 259/1/6 260/1/6 263/1/6
f 263/1/6 260/1/6 264/1/6
f 262/1/6 258/1/6 265/1/6
f 265/1/6 258/1/6 266/1/6
f 259/1/6 263/1/6 267/1/6
f 267/1/6 263/1/6 268/1/6
f 269/3/6 270/3/6 273/3/6
f 270/4/6 271/4/6 273/4/6
f 271/3/6 272/3/6 274/3/6
f 273/4/6 271/4/6 274/4/6
f 269/3/6 273/3/6 275/3/6
f 275/3/6 273/3/6 276/3/6
f 276/3/6 273/3/6 277/3/6
f 274/3/6 272/3/6 278/3/6
f 278/3/6 272/3/6 279/3/6
f 279/3/6 272/3/6 280/3/6
f 275/4/6 276/4/6 281/4/6
f 281/4/6 276/4/6 282/4/6
f 279/4/6 280/4/6 285/4/6
f 285/4/6 280/4/6 286/4/6
f 282/3/6 283/3/6 287/3/6
f 281/3/6 282/3/6 287/3/6
f 285/3/6 286/3/6 288/3/6
f 284/3/6 285/3/6 288/3/6
f 281/3/6 287/3/6 289/3/6
f 287/4/6 288/4/6 290/4/6
f 289/3/6 287/3/6 290/3/6
f 288/3/6 286/3/6 291/3/6
f 290/4/6 288/4/6 291/4/6
f 291/3/6 286/3/6 292/3/6
